<svg version="1.2" xmlns="http://www.w3.org/2000/svg" viewBox="0 0 587 540" width="587" height="540"><defs><clipPath clipPathUnits="userSpaceOnUse" id="cp1"><path d="m192 94h82v82h-82z"/></clipPath><clipPath clipPathUnits="userSpaceOnUse" id="cp2"><path d="m160.14 48.64l215.25-44.27 32.03 155.74-215.24 44.27z"/></clipPath><clipPath clipPathUnits="userSpaceOnUse" id="cp3"><path d="m160.14 48.64l215.25-44.27 32.03 155.74-215.24 44.27z"/></clipPath><clipPath clipPathUnits="userSpaceOnUse" id="cp4"><path d="m292 83h48v87h-48z"/></clipPath><clipPath clipPathUnits="userSpaceOnUse" id="cp5"><path d="m160.14 48.64l215.25-44.27 32.03 155.74-215.24 44.27z"/></clipPath><clipPath clipPathUnits="userSpaceOnUse" id="cp6"><path d="m160.14 48.64l215.25-44.27 32.03 155.74-215.24 44.27z"/></clipPath><clipPath clipPathUnits="userSpaceOnUse" id="cp7"><path d="m229 120h27v28h-27z"/></clipPath><clipPath clipPathUnits="userSpaceOnUse" id="cp8"><path d="m160.14 48.64l215.25-44.27 32.03 155.74-215.24 44.27z"/></clipPath><clipPath clipPathUnits="userSpaceOnUse" id="cp9"><path d="m160.14 48.64l215.25-44.27 32.03 155.74-215.24 44.27z"/></clipPath><clipPath clipPathUnits="userSpaceOnUse" id="cp10"><path d="m354 61h19v19h-19z"/></clipPath><clipPath clipPathUnits="userSpaceOnUse" id="cp11"><path d="m160.14 48.64l215.25-44.27 32.03 155.74-215.24 44.27z"/></clipPath><clipPath clipPathUnits="userSpaceOnUse" id="cp12"><path d="m160.14 48.64l215.25-44.27 32.03 155.74-215.24 44.27z"/></clipPath><clipPath clipPathUnits="userSpaceOnUse" id="cp13"><path d="m353 36h20v27h-20z"/></clipPath><clipPath clipPathUnits="userSpaceOnUse" id="cp14"><path d="m160.14 48.64l215.25-44.27 32.03 155.74-215.24 44.27z"/></clipPath><clipPath clipPathUnits="userSpaceOnUse" id="cp15"><path d="m160.14 48.64l215.25-44.27 32.03 155.74-215.24 44.27z"/></clipPath><clipPath clipPathUnits="userSpaceOnUse" id="cp16"><path d="m220 80h15v12h-15z"/></clipPath><clipPath clipPathUnits="userSpaceOnUse" id="cp17"><path d="m160.14 48.64l215.25-44.27 32.03 155.74-215.24 44.27z"/></clipPath><clipPath clipPathUnits="userSpaceOnUse" id="cp18"><path d="m160.14 48.64l215.25-44.27 32.03 155.74-215.24 44.27z"/></clipPath><clipPath clipPathUnits="userSpaceOnUse" id="cp19"><path d="m234 80h16v14h-16z"/></clipPath><clipPath clipPathUnits="userSpaceOnUse" id="cp20"><path d="m160.14 48.64l215.25-44.27 32.03 155.74-215.24 44.27z"/></clipPath><clipPath clipPathUnits="userSpaceOnUse" id="cp21"><path d="m160.14 48.64l215.25-44.27 32.03 155.74-215.24 44.27z"/></clipPath><clipPath clipPathUnits="userSpaceOnUse" id="cp22"><path d="m240 39h51v41h-51z"/></clipPath><clipPath clipPathUnits="userSpaceOnUse" id="cp23"><path d="m160.14 48.64l215.25-44.27 32.03 155.74-215.24 44.27z"/></clipPath><clipPath clipPathUnits="userSpaceOnUse" id="cp24"><path d="m160.14 48.64l215.25-44.27 32.03 155.74-215.24 44.27z"/></clipPath><clipPath clipPathUnits="userSpaceOnUse" id="cp25"><path d="m182 97h34v79h-34z"/></clipPath><clipPath clipPathUnits="userSpaceOnUse" id="cp26"><path d="m160.14 48.64l215.25-44.27 32.03 155.74-215.24 44.27z"/></clipPath><clipPath clipPathUnits="userSpaceOnUse" id="cp27"><path d="m160.14 48.64l215.25-44.27 32.03 155.74-215.24 44.27z"/></clipPath><clipPath clipPathUnits="userSpaceOnUse" id="cp28"><path d="m246 36h86v51h-86z"/></clipPath><clipPath clipPathUnits="userSpaceOnUse" id="cp29"><path d="m160.14 48.64l215.25-44.27 32.03 155.74-215.24 44.27z"/></clipPath><clipPath clipPathUnits="userSpaceOnUse" id="cp30"><path d="m160.14 48.64l215.25-44.27 32.03 155.74-215.24 44.27z"/></clipPath><clipPath clipPathUnits="userSpaceOnUse" id="cp31"><path d="m225 22h131v56h-131z"/></clipPath><clipPath clipPathUnits="userSpaceOnUse" id="cp32"><path d="m160.14 48.64l215.25-44.27 32.03 155.74-215.24 44.27z"/></clipPath><clipPath clipPathUnits="userSpaceOnUse" id="cp33"><path d="m160.14 48.64l215.25-44.27 32.03 155.74-215.24 44.27z"/></clipPath><clipPath clipPathUnits="userSpaceOnUse" id="cp34"><path d="m340 61h14v17h-14z"/></clipPath><clipPath clipPathUnits="userSpaceOnUse" id="cp35"><path d="m160.14 48.64l215.25-44.27 32.03 155.74-215.24 44.27z"/></clipPath><clipPath clipPathUnits="userSpaceOnUse" id="cp36"><path d="m160.14 48.64l215.25-44.27 32.03 155.74-215.24 44.27z"/></clipPath><clipPath clipPathUnits="userSpaceOnUse" id="cp37"><path d="m307 79h88v89h-88z"/></clipPath><clipPath clipPathUnits="userSpaceOnUse" id="cp38"><path d="m160.14 48.64l215.25-44.27 32.03 155.74-215.24 44.27z"/></clipPath><clipPath clipPathUnits="userSpaceOnUse" id="cp39"><path d="m160.14 48.64l215.25-44.27 32.03 155.74-215.24 44.27z"/></clipPath><clipPath clipPathUnits="userSpaceOnUse" id="cp40"><path d="m179 18h220v162h-220z"/></clipPath><clipPath clipPathUnits="userSpaceOnUse" id="cp41"><path d="m160.14 48.64l215.25-44.27 32.03 155.74-215.24 44.27z"/></clipPath><clipPath clipPathUnits="userSpaceOnUse" id="cp42"><path d="m160.14 48.64l215.25-44.27 32.03 155.74-215.24 44.27z"/></clipPath><clipPath clipPathUnits="userSpaceOnUse" id="cp43"><path d="m219 109h46v47h-46z"/></clipPath><clipPath clipPathUnits="userSpaceOnUse" id="cp44"><path d="m160.14 48.64l215.25-44.27 32.03 155.74-215.24 44.27z"/></clipPath><clipPath clipPathUnits="userSpaceOnUse" id="cp45"><path d="m160.14 48.64l215.25-44.27 32.03 155.74-215.24 44.27z"/></clipPath></defs><style>.a{fill:#fff}.b{fill:#00b796}.c{fill:#ffbd59}.d{fill:#545454}.e{fill:#5271ff}.f{fill:#221813}</style><path class="a" d="m-202-193h972v972h-972z"/><path class="a" d="m-202-193h972v972h-972z"/><path class="a" d="m-202-193h972v972h-972z"/><path class="a" d="m-202-193h972v972h-972z"/><g clip-path="url(#cp1)"><g clip-path="url(#cp2)"><g clip-path="url(#cp3)"><path class="b" d="m258.3 103.3c8.5 6.6 13.9 16.2 15.2 26.9 2.4 19-9.3 37-27 43.1q-2.4 0.9-4.9 1.4-1.7 0.3-3.2 0.5c-2.4 0.3-4.8 0.4-7.1 0.3-19.2-1-35.6-15.6-38-35.3-2.1-16.7 6.6-32.6 20.8-40.4 1.5-0.8 3-1.5 4.6-2.2 2.1-0.8 4.2-1.5 6.5-2q0.1 0 0.3 0 1.5-0.3 2.9-0.5 0.6 0 1-0.1 2-0.2 4-0.1c2.5 0 5 0.2 7.5 0.6q2.7 0.6 5.3 1.4 1.7 0.6 3.4 1.3c3.1 1.3 6 3 8.7 5.1z"/></g></g></g><g clip-path="url(#cp4)"><g clip-path="url(#cp5)"><g clip-path="url(#cp6)"><path class="b" d="m293 134.7c-4.8-23.1 9.7-45.8 32.4-51.4-16 10.4-25 29.8-20.9 49.5 3.8 18.6 18.1 32.4 35.5 36.6-22 2.1-42.5-12.6-47-34.7z"/></g></g></g><g clip-path="url(#cp7)"><g clip-path="url(#cp8)"><g clip-path="url(#cp9)"><path class="b" d="m255.7 132.4c0.9 7.2-4.3 13.9-11.6 14.9-7.3 0.9-14-4.3-14.9-11.6-0.9-6.9 3.7-13.4 10.5-14.7 0.3-0.1 0.7-0.2 1.1-0.2 7.3-0.9 14 4.3 14.9 11.6z"/></g></g></g><g clip-path="url(#cp10)"><g clip-path="url(#cp11)"><g clip-path="url(#cp12)"><path class="c" d="m370 79.8c-5-2.2-10.3-3.5-15.9-3.9l3.4-13.5q0.4-0.6 0.6-1.3l1.5 0.6 6.5 2.4 2.8 1 3.6 1.3z"/></g></g></g><g clip-path="url(#cp13)"><g clip-path="url(#cp14)"><g clip-path="url(#cp15)"><path class="c" d="m372.7 62.6l-5.3-1.9-8.5-3.2c0.1-1.1 0.1-2.2 0-3.2 0-0.2 0.1-0.4 0.1-0.6-0.1-0.4-0.1-0.7-0.2-1.1-0.2-2.1-0.6-3.9-0.9-5.1-1-4.1-2.5-7.9-4.6-11.2 10.3 4.6 17.5 13.2 19.4 26.3z"/></g></g></g><g clip-path="url(#cp16)"><g clip-path="url(#cp17)"><g clip-path="url(#cp18)"><path class="c" d="m224.1 81.5c0.4 0.1 10.2-0.9 10.2-0.9l-3.5 10.6q-1.4 0.1-2.8 0.2c-0.9 0.1-1.9 0.3-2.8 0.5q-2.3-0.1-4.6 0z"/></g></g></g><g clip-path="url(#cp19)"><g clip-path="url(#cp20)"><g clip-path="url(#cp21)"><path class="c" d="m241.5 83l3.2 1.9 4.4 2.6c0 0 0 0.1 0 0.1l-1.8 5.8c-4.1-1.4-8.3-2.1-12.7-2.2l3.2-9.5c0.1-0.2 0.2-0.5 0.2-0.8z"/></g></g></g><g clip-path="url(#cp22)"><g clip-path="url(#cp23)"><g clip-path="url(#cp24)"><path class="c" d="m240 77.8c11.6-18.1 30.5-32.4 50.5-38.5-5.9 2.9-11.6 6.2-17.1 10.1-11.9 8.4-22.1 18.8-29.9 30.5z"/></g></g></g><g clip-path="url(#cp25)"><g clip-path="url(#cp26)"><g clip-path="url(#cp27)"><path class="c" d="m198.5 167.7c-8.5-6.6-13.9-16.1-15.2-26.8-2.4-19 9.2-37.1 26.9-43.2-14.2 8.9-22.7 25.5-20.6 42.9 2 16 12.5 29 26.4 35-6.3-1.2-12.3-3.8-17.5-7.9z"/></g></g></g><g clip-path="url(#cp28)"><g clip-path="url(#cp29)"><g clip-path="url(#cp30)"><path class="c" d="m314.6 44.2c-21.6 4.4-45.6 19.2-60.2 42.2l-7.7-4.6c15.5-23 39.3-38.8 62-45.6 8.3-0.2 15.6 1.5 21 5.1 0.8 0.5 1.5 1.1 2.2 1.6-5.4-0.4-11.3 0-17.3 1.3z"/></g></g></g><g clip-path="url(#cp31)"><g clip-path="url(#cp32)"><g clip-path="url(#cp33)"><path class="c" d="m320.2 33.5c-3.8-0.8-7.8-1.1-12.1-1q-5.4 0.2-11.2 1.4c-21.7 4.4-45.9 19.4-60.4 42.6l-1.9 0.3c-0.2 0-0.4 0-0.6 0l-8.9 1c16.9-29.4 47.1-48.4 74.2-54 16.5-3.4 31.8-1.8 42.3 5.5 2 1.4 3.8 3 5.5 4.9 3.7 4.1 6.3 9.4 7.6 15.9 0.1 0.8 0.4 2.3 0.5 3.9v0.1c0.2 1.1 0.3 2.2 0.2 3.1l-11.2 2.4h-0.3l-1.2-5.9q-0.8-2.9-2.1-5.3c-0.8-1.7-1.7-3.2-2.9-4.6-4.1-5.4-10.2-8.7-17.5-10.3z"/></g></g></g><g clip-path="url(#cp34)"><g clip-path="url(#cp35)"><g clip-path="url(#cp36)"><path class="c" d="m343.7 63.4l10.2-1.9-3.6 14.4c-2.9 0-5.8 0.3-8.8 0.9-0.4 0.1-0.8 0.2-1.2 0.3z"/></g></g></g><g clip-path="url(#cp37)"><g clip-path="url(#cp38)"><g clip-path="url(#cp39)"><path class="c" d="m361.5 165.8c-0.5 0.1-1.1 0.2-1.6 0.3-3.1 0.7-6.2 0.9-9.2 0.9-20.3-0.1-38.4-14.3-42.6-34.9-4.3-21.1 7.5-42 27.1-49.6 0.3-0.1 0.8-0.3 1.1-0.4 1-0.3 2-0.7 3-0.9q1.5-0.5 2.9-0.8 2.4-0.5 4.8-0.7 1.2-0.1 2.4-0.1 1.9-0.1 3.8 0c6 0.3 11.8 1.8 17 4.4 0.2 0.1 0.4 0.2 0.7 0.3 11.5 5.8 20.3 16.7 23.1 30.2 4.8 23-9.7 45.7-32.5 51.2z"/></g></g></g><g clip-path="url(#cp40)"><g clip-path="url(#cp41)"><g clip-path="url(#cp42)"><path fill-rule="evenodd" class="d" d="m397.6 113.7c5.3 25.6-11.3 50.8-37 56-3.1 0.7-6.3 1-9.4 1-1.8 0.7-3.7 1.2-5.7 1.6-25.7 5.3-50.8-11.2-56.1-36.8-5.3-25.6 11.3-50.8 37-56.1 3.1-0.6 6.3-0.9 9.4-1 0.1 0 0.3-0.1 0.5-0.1l3.7-15.1c0.3-2.3-0.1-5-0.4-6.6q-1.1-5.3-3.9-9.4c-6-1.1-12.9-0.9-20.4 0.7-22.9 4.7-45.1 20.3-58 40.9-0.1 0.1-1.2 1.9-1.7 2-0.4 0.1-0.9 0-1.3-0.2l-1.9-1.2-1.7 5.3c3.5 1.5 6.8 3.4 9.8 5.8 9.3 7.2 15.2 17.6 16.6 29.2 2.9 22.7-12.5 44-34.8 48.6q-1.7 0.4-3.5 0.6-3.7 0.4-7.2 0.3-1.5 0.3-2.9 0.4c-11.6 1.5-23.2-1.7-32.5-8.9-9.2-7.3-15.1-17.7-16.6-29.3-2.8-22.7 12.5-44 34.8-48.6 0.7-0.1 1.4-0.3 2.1-0.4l4.1-12q0.1-0.4 0.4-0.8c-0.3-0.9-0.1-1.8 0.3-2.6 8.2-14.6 20.1-27.7 34.5-37.8 13.3-9.4 28.1-16 42.7-19 18.6-3.8 34.9-1.5 45.9 6.6q2.5 1.8 4.6 4.1c4.9 1.4 9.2 3.5 13 6.2 8.1 5.9 13.1 14.7 14.4 25.6 0.3 0.4-3 18.7-3 18.7 12.1 6.4 21.3 18 24.2 32.3zm-25.1-47.3l-3.6-1.3-2.8-1-6.5-2.4-1.5-0.6q-0.2 0.7-0.6 1.3l-3.4 13.5c5.6 0.4 10.9 1.7 15.9 3.9zm-19.2-30.2c2.1 3.4 3.6 7.1 4.7 11.3 0.2 1.1 0.7 3 0.9 5 0 0.4 0.1 0.7 0.1 1.1 0 0.2 0 0.4 0 0.6 0 1.1 0 2.1-0.1 3.3l8.5 3.1 5.4 2c-1.9-13.2-9.2-21.8-19.5-26.4zm-132.6 55.7q2.3-0.2 4.6-0.1c0.9-0.2 1.9-0.3 2.8-0.4q1.3-0.2 2.7-0.3l3.6-10.5c0 0-9.8 0.9-10.3 0.8zm17.4-11c-0.1 0.3-0.1 0.5-0.2 0.8l-3.2 9.5c4.4 0.1 8.6 0.8 12.7 2.2l1.8-5.9c0 0 0 0 0 0l-4.4-2.6-3.2-1.9zm5.5-1.1c7.8-11.6 18-22 29.9-30.4 5.5-3.9 11.2-7.3 17.1-10.2-20 6.2-38.9 20.4-50.5 38.5zm-27.5 95.8c-13.9-6-24.3-19-26.3-35-2.2-17.4 6.4-34 20.6-42.9-17.7 6.1-29.4 24.1-27 43.1 1.3 10.7 6.7 20.3 15.2 26.9 5.2 4 11.2 6.7 17.5 7.9zm33.6-77.4q-1.7-0.7-3.4-1.3-2.6-0.9-5.3-1.4c-2.4-0.5-4.9-0.7-7.5-0.7q-1.9 0-3.9 0.2-0.5 0-1 0.1-1.5 0.2-3 0.5-0.1 0-0.3 0c-2.2 0.5-4.4 1.1-6.5 2-1.6 0.6-3.1 1.3-4.6 2.1-14.2 7.8-22.8 23.7-20.8 40.4 2.4 19.7 18.8 34.4 38 35.3 2.4 0.1 4.7 0.1 7.1-0.2q1.6-0.2 3.2-0.5 2.6-0.6 5-1.4c17.7-6.1 29.3-24.1 26.9-43.1-1.3-10.7-6.7-20.3-15.2-26.9-2.7-2.1-5.6-3.8-8.7-5.1zm82.3-55.3c-0.7-0.6-1.4-1.2-2.2-1.7-5.4-3.5-12.6-5.3-21-5-22.7 6.7-46.5 22.5-62 45.6l7.8 4.5c14.5-22.9 38.5-37.7 60.1-42.1 6.1-1.3 11.9-1.7 17.3-1.3zm5.9 0.9c1.1 1.4 2 2.9 2.9 4.6q1.2 2.4 2 5.3l1.2 5.9 0.3-0.1 11.3-2.3c0-0.9-0.1-2-0.2-3.2-0.2-1.6-0.5-3.1-0.6-4-1.3-6.4-3.9-11.7-7.6-15.9-1.6-1.8-3.4-3.4-5.5-4.8-10.5-7.3-25.8-8.9-42.3-5.5-27.1 5.5-57.2 24.5-74.1 54l8.8-1c0.2-0.1 0.4 0 0.7 0l1.8-0.4c14.6-23.1 38.7-38.1 60.5-42.6q5.7-1.1 11.1-1.3c4.3-0.1 8.3 0.2 12.1 1 7.3 1.5 13.5 4.9 17.6 10.3zm2.6 33.3c0.3-0.1 0.7-0.2 1.1-0.3 3-0.6 5.9-0.9 8.8-1l3.6-14.3-10.1 1.9zm-0.4 92.2c-17.3-4.1-31.6-17.9-35.5-36.5-4-19.7 4.9-39.2 21-49.5-22.7 5.6-37.2 28.3-32.5 51.3 4.5 22.1 25.1 36.8 47 34.7zm54.1-54.8c-2.8-13.6-11.7-24.4-23.2-30.2-0.2-0.1-0.5-0.2-0.7-0.4-5.2-2.5-11-4.1-17-4.3q-1.9-0.1-3.8-0.1-1.2 0.1-2.4 0.2-2.3 0.2-4.7 0.7-1.5 0.3-3 0.7c-1 0.3-2 0.6-2.9 1-0.4 0.1-0.8 0.2-1.2 0.4-19.6 7.6-31.4 28.4-27 49.6 4.2 20.5 22.3 34.7 42.5 34.9 3 0 6.1-0.3 9.2-0.9 0.6-0.1 1.1-0.3 1.7-0.4 22.7-5.6 37.2-28.2 32.5-51.2z"/></g></g></g><g clip-path="url(#cp43)"><g clip-path="url(#cp44)"><g clip-path="url(#cp45)"><path fill-rule="evenodd" class="d" d="m254 121.6c0.6-1.1 1.3-3.5 1.5-5.8 0.2-1 1.1-1.8 2.1-1.6 1 0.1 1.7 1 1.6 2-0.3 2-1 6.1-2.8 8.2 1.5 2.2 2.5 4.7 2.9 7.5q0.2 1.6 0.1 3.3 0.3 0 0.7 0.1l3.3 1.3c1 0.4 1.5 1.4 1.1 2.4-0.3 0.5-0.8 1-1.4 1.1-0.3 0.1-0.7 0-1-0.1l-3.4-1.3q0 0 0 0c-0.9 3.1-2.7 5.8-5 7.9 1.8 1.3 3.5 3.4 3.5 6.7 0 0.9-0.6 1.6-1.5 1.8-0.1 0-0.2 0.1-0.3 0-1.1 0.1-1.9-0.7-1.9-1.8 0-2.8-2.2-3.9-3.2-4.3q-2.1 1.1-4.5 1.6c-0.4 0.1-0.9 0.2-1.3 0.3-2.5 0.3-4.8 0-7-0.6l-0.3 1.4c-0.1 0.8-0.7 1.4-1.4 1.5q-0.3 0.1-0.7 0c-1-0.1-1.6-1.1-1.5-2.1l0.4-2.3c-2.3-1.3-4.3-3.1-5.7-5.3q-0.5 0-0.9-0.3c-1-0.6-2.8-1.4-3.7-1.2-0.1 0.1-0.1 0.1-0.1 0.1-0.2 0-0.4 0.1-0.6 0.5-0.4 0.9-1.6 1.2-2.5 0.8-0.9-0.4-1.2-1.6-0.8-2.5 0.7-1.2 1.7-2 2.9-2.4 1.1-0.2 2.3-0.1 3.3 0.2-0.2-0.8-0.4-1.6-0.5-2.5-0.3-2.5 0-4.8 0.7-7.1-0.5-0.1-0.9-0.3-1.2-0.7-0.9-1.4-2.6-2.7-3.1-2.4-0.9 0.5-2.1 0.2-2.6-0.7-0.5-0.8-0.2-2 0.7-2.5 2.7-1.6 5.8 0.5 7.7 2.9 2-3.5 5.2-6.3 9.1-7.7 0 0 0.1 0 0-0.1 1.2-3-0.6-5.4-0.6-5.5-0.6-0.8-0.4-1.9 0.4-2.5 0.8-0.6 2-0.5 2.6 0.4 0.1 0.1 2.1 3 1.6 6.8 5.1-0.5 9.8 1.3 13.3 4.5zm-13.2-0.8c-0.4 0-0.8 0.1-1.1 0.2-6.8 1.3-11.4 7.8-10.5 14.7 0.9 7.3 7.6 12.5 14.9 11.6 7.3-1 12.5-7.7 11.6-14.9-0.9-7.3-7.6-12.5-14.9-11.6z"/></g></g></g><path class="d" d="m97 206.7v8.2h-14.3v8.1h13.2v8.2h-13.2v16.4h-9.3v-40.9z"/><path class="d" d="m108 247.6v-25.5h8.7v3.7h0.2q0-0.2 0.3-0.5 0.2-0.3 0.9-1 0.8-0.8 1.6-1.4 0.9-0.6 2.2-1 1.3-0.5 2.7-0.5 1.5 0 2.9 0.4 1.4 0.4 2 0.8l0.7 0.4-3.7 7.4q-1.6-1.4-4.5-1.4-1.6 0-2.8 0.7-1.1 0.7-1.6 1.7-0.4 1-0.7 1.7-0.2 0.7-0.2 1.1v13.4z"/><path fill-rule="evenodd" class="d" d="m141.6 244.6q-4.3-3.8-4.3-9.7 0-5.9 4.4-9.7 4.4-3.8 11-3.8 6.3 0 10.7 3.8 4.4 3.8 4.4 9.7 0 5.8-4.3 9.6-4.3 3.8-10.8 3.8-6.9 0-11.1-3.7zm6.8-14q-1.8 1.7-1.7 4.3-0.1 2.6 1.6 4.3 1.6 1.6 4.3 1.6 2.6 0 4.2-1.6 1.7-1.7 1.7-4.3 0-2.6-1.7-4.3-1.7-1.7-4.2-1.7-2.5 0-4.2 1.7z"/><path class="d" d="m178.4 247.6v-25.5h8.8v2.7h0.1q3.4-3.4 7.3-3.4 1.9 0 3.7 0.5 1.9 0.5 3.6 1.5 1.7 1.1 2.8 3 1 1.9 1 4.4v16.8h-8.7v-14.4q0-2-1.3-3.5-1.3-1.5-3.3-1.5-2 0-3.6 1.6-1.6 1.5-1.6 3.4v14.4z"/><path class="d" d="m219.2 222.1v-9.4h8.8v9.4h5.3v6.7h-5.3v8.1q-0.1 3.5 1.9 3.5 0.5 0 1.1-0.1 0.5-0.2 0.8-0.4l0.3-0.3 2.2 7.1q-2.8 1.6-6.4 1.6-2.5 0-4.3-0.8-1.8-0.9-2.7-2.4-0.9-1.4-1.3-3-0.4-1.7-0.4-3.5v-9.8h-3.7v-6.7z"/><path fill-rule="evenodd" class="d" d="m269.5 236.1h-18.4q0 2.7 1.7 4 1.7 1.2 3.8 1.2 2.1 0 3.3-0.5 1.3-0.6 2.9-2.3l6.3 3.2q-4 6.6-13.2 6.6-5.7 0-9.9-3.9-4.1-4-4.1-9.5 0-5.6 4.1-9.5 4.2-4 9.9-4 6.1 0 9.9 3.5 3.8 3.5 3.8 10 0 0.9-0.1 1.2zm-18.2-4.9h9.7q-0.3-2-1.6-3-1.2-1.1-3.2-1.1-2.2 0-3.5 1.1-1.3 1.2-1.4 3z"/><path fill-rule="evenodd" class="d" d="m281 208q1.5-1.6 3.7-1.6 2.1 0 3.6 1.6 1.6 1.5 1.6 3.6 0 2.2-1.6 3.7-1.5 1.5-3.6 1.5-2.2 0-3.7-1.5-1.5-1.5-1.5-3.7 0-2.1 1.5-3.6zm-0.8 14.1v25.5h8.7v-25.5z"/><path class="d" d="m301.6 247.6v-25.5h8.8v3.7h0.1q0.1-0.2 0.3-0.5 0.2-0.3 1-1 0.7-0.8 1.6-1.4 0.8-0.6 2.2-1 1.3-0.5 2.7-0.5 1.4 0 2.8 0.4 1.4 0.4 2.1 0.8l0.6 0.4-3.6 7.4q-1.7-1.4-4.6-1.4-1.6 0-2.7 0.7-1.2 0.7-1.6 1.7-0.5 1-0.7 1.7-0.2 0.7-0.2 1.1v13.4z"/><path fill-rule="evenodd" class="d" d="m334.5 244.4q-3.5-3.9-3.5-9.5 0-5.7 3.5-9.6 3.6-3.9 9.1-3.9 5.1 0 8.4 3.2v-2.5h8.7v25.5h-8.6v-2.9h-0.1q-3.3 3.6-8.4 3.6-5.5 0-9.1-3.9zm7.5-13.8q-1.7 1.7-1.7 4.3 0 2.6 1.6 4.3 1.7 1.6 4.4 1.6 2.5 0 4.2-1.6 1.7-1.7 1.7-4.3 0-2.6-1.8-4.3-1.7-1.7-4.1-1.7-2.6 0-4.3 1.7z"/><path class="d" d="m384.2 221.4q2.2 0 4.3 0.5 2.2 0.5 3.2 1l1.1 0.5-2.9 5.7q-3-1.5-5.7-1.5-1.5 0-2.1 0.3-0.6 0.3-0.6 1.2 0 0.2 0.1 0.4 0 0.2 0.1 0.4 0.2 0.1 0.3 0.2 0.2 0.2 0.4 0.3 0.3 0.2 0.5 0.2 0.2 0.1 0.6 0.3 0.4 0.1 0.6 0.2 0.2 0.1 0.6 0.2 0.5 0.2 0.8 0.2 1.5 0.5 2.7 1 1.1 0.6 2.4 1.5 1.2 0.9 1.9 2.4 0.7 1.4 0.7 3.2 0 8.7-12 8.7-2.8 0-5.2-0.8-2.5-0.9-3.6-1.7l-1.1-0.9 3.6-6q0.4 0.4 1 0.8 0.7 0.5 2.4 1.3 1.7 0.8 2.9 0.8 2.7 0 2.7-1.8 0-0.9-0.7-1.3-0.7-0.5-2.3-1.1-1.7-0.6-2.6-1.1-2.4-1.2-3.8-2.8-1.4-1.5-1.4-4.1 0-3.9 3-6 3-2.2 8.1-2.2z"/><path fill-rule="evenodd" class="d" d="m425.8 244.4q-3.5-3.9-3.5-9.5 0-5.7 3.5-9.6 3.6-3.9 9.1-3.9 5.1 0 8.3 3.2v-19.7h8.8v42.7h-8.7v-2.9h-0.1q-3.2 3.6-8.3 3.6-5.5 0-9.1-3.9zm7.5-13.8q-1.7 1.7-1.7 4.3 0 2.6 1.6 4.3 1.7 1.6 4.3 1.6 2.6 0 4.3-1.6 1.6-1.7 1.6-4.3 0-2.6-1.7-4.3-1.7-1.7-4.2-1.7-2.5 0-4.2 1.7z"/><path fill-rule="evenodd" class="d" d="m466.2 244.4q-3.6-3.9-3.6-9.5 0-5.7 3.6-9.6 3.6-3.9 9.1-3.9 5 0 8.3 3.2v-2.5h8.8v25.5h-8.7v-2.9h-0.1q-3.3 3.6-8.3 3.6-5.5 0-9.1-3.9zm7.4-13.8q-1.7 1.7-1.7 4.3 0 2.6 1.7 4.3 1.6 1.6 4.3 1.6 2.6 0 4.2-1.6 1.7-1.7 1.7-4.3 0-2.6-1.7-4.3-1.7-1.7-4.2-1.7-2.5 0-4.3 1.7z"/><path fill-rule="evenodd" class="d" d="m332.1 117.5c0 0.5-0.4 0.7-0.7 0.8l-7.3 0.2 0.1 3.2 6.7-0.2c0.5 0 0.8 0.4 0.8 0.6l0.1 4.6c0.1 0.5-0.3 0.8-0.6 0.8l-6.8 0.2 0.3 8.6c0 0.4-0.4 0.7-0.6 0.7l-5.3 0.2c-0.4 0-0.7-0.4-0.7-0.7l-0.9-23c0-0.4 0.4-0.7 0.7-0.7l13.3-0.5c0.4-0.1 0.7 0.3 0.7 0.6zm-13.4-3.4l0.8 21.7 3.8-0.2-0.3-8.5c0-0.3 0.2-0.7 0.7-0.8l6.7-0.2-0.1-3.2-6.7 0.2c-0.3 0-0.7-0.2-0.8-0.6l-0.1-4.6c0-0.3 0.2-0.7 0.6-0.7l7.4-0.3-0.1-3.2z"/><path fill-rule="evenodd" class="d" d="m356 116.6c0 0.5-0.4 0.7-0.6 0.8l-7.3 0.2 0.1 3.2 6.9-0.2c0.5-0.1 0.8 0.3 0.8 0.6l0.1 4.6c0.1 0.5-0.4 0.8-0.6 0.8l-6.9 0.2 0.1 3.3 7.2-0.3c0.4 0 0.7 0.4 0.7 0.7l0.2 4.6c0 0.4-0.4 0.7-0.7 0.7l-13.1 0.5c-0.5 0-0.8-0.4-0.8-0.7l-0.8-23c-0.1-0.4 0.3-0.7 0.6-0.8l13.2-0.5c0.4 0 0.7 0.4 0.7 0.7zm-13.3-3.4l0.8 21.7 11.8-0.5-0.1-3.2-7.2 0.3c-0.3 0-0.7-0.3-0.8-0.7l-0.1-4.6c0-0.3 0.2-0.7 0.6-0.8l6.9-0.2-0.1-3.2-6.9 0.2c-0.3 0-0.7-0.2-0.7-0.6l-0.2-4.6c0-0.3 0.2-0.7 0.7-0.8l7.2-0.2-0.1-3.2z"/><path fill-rule="evenodd" class="d" d="m382.5 112.2c0.3 0.2 0.4 0.6 0.3 0.9l-2 4.3c-0.1 0.2-0.4 0.6-1 0.3 0 0-2.3-1.4-4.3-1.4-1.6 0.1-2 0.7-2 1.5 0 0.6 1.6 1.4 4.5 2.5 2.7 1.1 5.9 3.3 6.1 6.7 0.2 6.1-4.4 8.3-9.1 8.5-5.7 0.2-9.2-2.8-9.3-2.9-0.2-0.2-0.3-0.6-0.1-0.8l2.4-4.5c0.1-0.2 0.5-0.7 1.1-0.3 0 0 3.1 2.3 5.3 2.3 1.2-0.1 2.6-0.3 2.5-1.7 0-1-1.8-1.6-4.9-3-3-1.3-4.9-3.6-5-6.4-0.2-4.7 3.9-7.9 7.9-8 4.4-0.2 7.6 2 7.6 2zm-14.1 6c0.1 2 1.5 3.9 4.2 5.1 2.5 1.2 5.6 1.9 5.7 4.2 0.1 2.9-2.9 3.1-3.9 3.2-2.2 0-4.4-1.4-5.5-2.1l-1.8 3.3c1 0.7 3.9 2.4 7.8 2.2 4.4-0.2 8-2 7.8-7-0.1-2.6-2.7-4.5-5.2-5.5-2.5-0.9-5.3-1.7-5.4-3.8 0-1.7 1.3-2.8 3.4-2.9 1.8 0 3.4 0.7 4.4 1.2l1.4-3c-1-0.5-3.4-1.6-6.3-1.5-3.5 0.1-6.8 2.8-6.6 6.6z"/><path class="e" d="m563.7 0.5v8.6h-558.6v-8.6h522.6z"/><path class="d" d="m144.9 323.5q3.8 0 7.3 1.1 3.6 1.1 5.4 2.1l1.6 1.2-4.2 8.4q-0.5-0.4-1.4-0.9-0.9-0.5-3.4-1.4-2.4-0.9-4.6-0.9-2.6 0-4 1.1-1.4 1.1-1.4 3 0 1 0.6 1.8 0.7 0.8 2.3 1.7 1.6 0.9 2.9 1.5 1.2 0.6 3.8 1.7 4.5 1.9 7.6 5.2 3.2 3.2 3.2 7.4 0 4-1.4 6.9-1.5 3-4 4.7-2.5 1.7-5.5 2.5-3 0.8-6.5 0.8-3.1 0-6-0.6-2.9-0.7-4.8-1.6-2-0.9-3.6-1.8-1.5-0.9-2.3-1.5l-0.7-0.6 5.3-8.9q0.6 0.6 1.8 1.5 1.2 0.8 4.2 2.3 3 1.4 5.3 1.4 6.7 0 6.7-4.5 0-1-0.5-1.8-0.5-0.8-1.7-1.6-1.2-0.8-2.1-1.3-1-0.5-3.1-1.4-2.1-1-3.1-1.5-4.2-2.1-6.5-5.2-2.3-3.1-2.3-6.7 0-6.2 4.6-10.2 4.6-3.9 10.5-3.9z"/><path fill-rule="evenodd" class="d" d="m175.6 367.1q-4.8-4.2-4.8-10.9 0-6.7 5-10.9 4.9-4.3 12.3-4.3 7.2 0 12.2 4.3 4.9 4.3 4.9 10.9 0 6.6-4.8 10.9-4.9 4.3-12.3 4.3-7.8 0-12.5-4.3zm7.6-15.8q-1.9 1.9-1.9 4.9 0 3 1.8 4.8 1.9 1.9 4.9 1.9 2.9 0 4.8-1.9 1.9-1.9 1.9-4.8 0-3-1.9-4.9-2-1.9-4.8-1.9-2.8 0-4.8 1.9z"/><path class="d" d="m218.9 341.8v-6.1q0-6.4 3-10.3 3-3.9 8.2-3.9 2.3 0 4.3 0.7 2.1 0.6 3 1.3l0.9 0.6-3.5 7q-1.3-0.8-2.9-0.8-1.9 0-2.5 1.3-0.6 1.2-0.6 4.4v5.8h6.6v7.6h-6.6v21.1h-9.9v-21.1h-4.2v-7.6z"/><path class="d" d="m247.2 341.8v-10.7h9.9v10.7h6.1v7.6h-6.1v9.1q0 4 2.3 4 0.5 0 1.1-0.2 0.7-0.3 1-0.5l0.3-0.2 2.5 8q-3.2 1.8-7.3 1.8-2.8 0-4.8-1-2-1-3.1-2.6-1-1.7-1.4-3.5-0.5-1.8-0.5-3.9v-11h-4.1v-7.6z"/><path class="d" d="m292.6 370.5h-6.7l-15.4-28.7h11.4l7 15.5 6.9-15.5h6.9l6.8 15.5 7-15.5h11.5l-15.4 28.7h-6.8l-6.6-14.8z"/><path fill-rule="evenodd" class="d" d="m339.5 367q-4.1-4.4-4.1-10.8 0-6.4 4.1-10.8 4-4.4 10.2-4.4 5.7 0 9.4 3.5v-2.7h10v28.7h-9.8v-3.2h-0.2q-3.7 4.1-9.4 4.1-6.2 0-10.2-4.4zm8.4-15.7q-1.9 1.9-1.9 4.9 0 3 1.8 4.8 1.9 1.9 4.9 1.9 2.9 0 4.8-1.9 1.9-1.9 1.9-4.8 0-3-2-4.9-1.9-1.9-4.7-1.9-2.8 0-4.8 1.9z"/><path class="d" d="m383.1 370.5v-28.7h9.9v4.2h0.1q0.1-0.3 0.4-0.6 0.2-0.3 1.1-1.2 0.8-0.8 1.8-1.5 0.9-0.7 2.4-1.2 1.6-0.5 3.1-0.5 1.6 0 3.2 0.4 1.6 0.5 2.3 0.9l0.8 0.5-4.2 8.4q-1.8-1.6-5.1-1.6-1.8 0-3.1 0.8-1.3 0.8-1.8 1.9-0.5 1.1-0.8 1.9-0.2 0.8-0.2 1.2v15.1z"/><path fill-rule="evenodd" class="d" d="m447.4 357.5h-20.8q0 3.1 1.9 4.5 2 1.5 4.3 1.5 2.4 0 3.8-0.7 1.4-0.6 3.2-2.5l7.1 3.6q-4.4 7.5-14.9 7.5-6.5 0-11.1-4.5-4.7-4.4-4.7-10.7 0-6.3 4.7-10.7 4.6-4.5 11.1-4.5 6.9 0 11.2 3.9 4.2 4 4.2 11.3 0 1 0 1.3zm-20.6-5.5h11q-0.4-2.2-1.8-3.4-1.4-1.2-3.7-1.2-2.4 0-3.9 1.3-1.5 1.3-1.6 3.3z"/><path class="d" d="m98.6 265.2v8.2h-14.1v8.1h13.5v8.2h-13.5v8.2h14.1v8.2h-23.4v-40.9z"/><path class="d" d="m107.7 306.1v-25.4h8.8v2.6h0.1q3.4-3.4 7.3-3.4 1.9 0 3.7 0.5 1.9 0.5 3.6 1.6 1.7 1 2.8 2.9 1.1 1.9 1.1 4.4v16.8h-8.8v-14.4q0-2-1.3-3.5-1.2-1.5-3.3-1.5-2 0-3.6 1.6-1.6 1.5-1.6 3.4v14.4z"/><path fill-rule="evenodd" class="d" d="m143.2 312.3l7.2-3.5q2 3.3 6.9 3.3 2.3 0 4.2-1.5 2-1.4 2-4.5v-1.8q-2.4 2.5-8.4 2.5-5.5 0-9-3.8-3.6-4-3.6-9.6 0-5.6 3.6-9.6 3.5-3.9 9-3.9 5 0 8.2 3h0.2v-2.2h8.7v26.1q0 6.2-4.1 9.6-4.1 3.3-10.8 3.3-10.9 0-14.1-7.4zm10.3-23.2q-1.7 1.7-1.7 4.3 0 2.6 1.6 4.3 1.7 1.6 4.4 1.6 2.6 0 4.2-1.6 1.7-1.7 1.7-4.3 0-2.6-1.8-4.3-1.7-1.7-4.1-1.7-2.6 0-4.3 1.7z"/><path fill-rule="evenodd" class="d" d="m207.8 294.6h-18.5q0 2.7 1.7 4 1.8 1.2 3.8 1.2 2.1 0 3.4-0.5 1.2-0.6 2.8-2.3l6.3 3.2q-3.9 6.6-13.1 6.6-5.8 0-9.9-3.9-4.1-3.9-4.1-9.5 0-5.6 4.1-9.5 4.1-4 9.9-4 6 0 9.8 3.5 3.8 3.5 3.8 10 0 0.9 0 1.2zm-18.2-4.9h9.6q-0.3-1.9-1.5-3-1.3-1.1-3.3-1.1-2.2 0-3.5 1.1-1.3 1.2-1.3 3z"/><path class="d" d="m215.7 306.1v-25.4h8.8v2.6h0.1q3.4-3.4 7.3-3.4 1.9 0 3.7 0.5 1.9 0.5 3.6 1.6 1.7 1 2.8 2.9 1 1.9 1 4.4v16.8h-8.7v-14.4q0-2-1.3-3.5-1.2-1.5-3.3-1.5-2 0-3.6 1.6-1.6 1.5-1.6 3.4v14.4z"/><path class="d" d="m252.3 306.1v-42.7h8.8v19.9h0.1q3.4-3.4 7.3-3.4 1.9 0 3.7 0.5 1.9 0.5 3.6 1.6 1.7 1 2.8 2.9 1 1.9 1 4.4v16.8h-8.7v-14.4q0-2-1.3-3.5-1.3-1.5-3.3-1.5-2 0-3.6 1.6-1.6 1.5-1.6 3.4v14.4z"/><path fill-rule="evenodd" class="d" d="m290.6 303q-3.5-4-3.5-9.6 0-5.6 3.5-9.6 3.6-3.9 9.1-3.9 5.1 0 8.4 3.2v-2.4h8.7v25.4h-8.6v-2.9h-0.1q-3.3 3.6-8.4 3.6-5.5 0-9.1-3.8zm7.5-13.9q-1.7 1.7-1.7 4.3 0 2.6 1.6 4.3 1.7 1.6 4.4 1.6 2.5 0 4.2-1.6 1.6-1.7 1.6-4.3 0-2.6-1.7-4.3-1.7-1.7-4.1-1.7-2.6 0-4.3 1.7z"/><path class="d" d="m326.6 306.1v-25.4h8.8v3.6h0.1q0.1-0.2 0.3-0.5 0.2-0.3 1-1 0.7-0.8 1.6-1.3 0.8-0.7 2.1-1.1 1.4-0.5 2.8-0.5 1.4 0 2.8 0.4 1.4 0.4 2 0.8l0.7 0.4-3.6 7.4q-1.7-1.4-4.6-1.4-1.6 0-2.7 0.7-1.2 0.7-1.7 1.7-0.4 1-0.6 1.7-0.2 0.7-0.2 1.1v13.4z"/><path fill-rule="evenodd" class="d" d="m355.9 266.5q1.6-1.6 3.7-1.6 2.2 0 3.7 1.6 1.5 1.5 1.5 3.6 0 2.2-1.5 3.7-1.5 1.5-3.7 1.5-2.1 0-3.7-1.5-1.5-1.5-1.5-3.7 0-2.1 1.5-3.6zm-0.8 14.2v25.4h8.8v-25.4z"/><path fill-rule="evenodd" class="d" d="m375.6 303q-3.5-4-3.5-9.6 0-5.6 3.5-9.6 3.6-3.9 9.1-3.9 5.1 0 8.3 3.2v-2.4h8.8v25.4h-8.7v-2.9h-0.1q-3.2 3.6-8.3 3.6-5.5 0-9.1-3.8zm7.5-13.9q-1.7 1.7-1.7 4.3 0 2.6 1.6 4.3 1.7 1.6 4.3 1.6 2.6 0 4.3-1.6 1.6-1.7 1.6-4.3 0-2.6-1.7-4.3-1.7-1.7-4.2-1.7-2.5 0-4.2 1.7z"/><path fill-rule="evenodd" class="d" d="m430.7 303q-3.6-4-3.6-9.6 0-5.6 3.6-9.6 3.5-3.9 9-3.9 5.1 0 8.4 3.2v-19.7h8.8v42.7h-8.7v-2.9h-0.1q-3.3 3.6-8.4 3.6-5.5 0-9-3.8zm7.4-13.9q-1.7 1.7-1.7 4.3 0 2.6 1.7 4.3 1.6 1.6 4.3 1.6 2.6 0 4.2-1.6 1.7-1.7 1.7-4.3 0-2.6-1.7-4.3-1.7-1.7-4.2-1.7-2.5 0-4.3 1.7z"/><path fill-rule="evenodd" class="d" d="m492.4 294.6h-18.5q0 2.7 1.7 4 1.8 1.2 3.8 1.2 2.2 0 3.4-0.5 1.2-0.6 2.8-2.3l6.4 3.2q-4 6.6-13.2 6.6-5.8 0-9.9-3.9-4.1-3.9-4.1-9.5 0-5.6 4.1-9.5 4.1-4 9.9-4 6 0 9.8 3.5 3.8 3.5 3.8 10 0 0.9 0 1.2zm-18.2-4.9h9.6q-0.3-1.9-1.5-3-1.3-1.1-3.3-1.1-2.2 0-3.5 1.1-1.2 1.2-1.3 3z"/><path class="e" d="m563.7 420.4v8.6h-558.6v-8.6h522.6z"/><path class="f" d="m392.4 409.3l181.8-54.3 12.9 43.1-181.8 54.3z"/><path class="c" d="m380.8 403l181.8-54.3 12.8 43.1-181.7 54.3z"/><path fill-rule="evenodd" class="d" d="m421.7 409.6q2.8 1.7 3.9 5.1 1 3.3-0.5 6.3-1.4 3-4.7 4-3 0.9-5.6-0.4l2.8 9.1-5.3 1.6-6.9-22.9 5.2-1.6 0.5 1.7h0.1q1.3-2.7 4.4-3.6 3.3-1 6.1 0.7zm-2 9.6q0.7-1.3 0.3-2.9-0.5-1.6-1.8-2.3-1.3-0.7-2.9-0.2-1.5 0.5-2.2 1.8-0.7 1.3-0.2 2.8 0.4 1.6 1.8 2.3 1.3 0.7 2.8 0.3 1.5-0.5 2.2-1.8z"/><path fill-rule="evenodd" class="d" d="m435.1 418.1q-3.2-1.5-4.3-5-1-3.5 0.9-6.6 2-3.1 5.9-4.2 3.8-1.2 7.1 0.3 3.3 1.5 4.4 5 1 3.5-0.9 6.6-1.8 3-5.8 4.2-4.1 1.2-7.3-0.3zm1.6-9.6q-0.8 1.4-0.3 2.9 0.5 1.6 1.8 2.3 1.2 0.7 2.8 0.2 1.6-0.4 2.3-1.7 0.7-1.4 0.2-2.9-0.5-1.6-1.8-2.3-1.3-0.7-2.8-0.2-1.5 0.4-2.2 1.7z"/><path fill-rule="evenodd" class="d" d="m458.2 411.2q-2.8-1.7-3.8-5.1-1.1-3.4 0.4-6.4 1.4-3 4.7-4 3-0.9 5.6 0.4l-3.6-11.7 5.3-1.6 7.6 25.5-5.2 1.6-0.5-1.7q-1.3 2.8-4.4 3.7-3.3 0.9-6.1-0.7zm2-9.7q-0.8 1.3-0.3 2.9 0.5 1.6 1.8 2.3 1.3 0.7 2.9 0.2 1.5-0.5 2.2-1.8 0.7-1.3 0.2-2.8-0.4-1.6-1.8-2.3-1.3-0.7-2.8-0.3-1.5 0.5-2.2 1.8z"/><path class="d" d="m486.6 392.3q-1.5 0.5-2.2 1.9-0.8 1.4-0.3 2.9 0.5 1.6 1.9 2.4 1.4 0.8 2.8 0.3 0.8-0.2 1.3-0.5 0.6-0.4 0.9-0.7l0.2-0.3 2.9 3.2q-0.2 0.2-0.5 0.5-0.3 0.3-1.5 1.1-1.2 0.8-2.7 1.3-3.4 1-6.6-0.6-3.3-1.6-4.3-4.9-1-3.3 0.9-6.5 1.8-3.2 5.1-4.2 1.6-0.4 2.9-0.4 1.4-0.1 2.1 0.1l0.6 0.2-0.7 4.2q-1.2-0.5-2.8 0z"/><path fill-rule="evenodd" class="d" d="m500.8 398.4q-2.8-1.7-3.8-5.1-1-3.4 0.4-6.4 1.5-3 4.8-3.9 3-0.9 5.5 0.4l-0.4-1.5 5.2-1.5 4.6 15.2-5.2 1.5-0.5-1.7h-0.1q-1.3 2.8-4.3 3.7-3.3 1-6.2-0.7zm2-9.6q-0.7 1.3-0.2 2.9 0.5 1.5 1.7 2.2 1.3 0.7 2.9 0.2 1.6-0.4 2.3-1.7 0.7-1.3 0.2-2.9-0.5-1.6-1.8-2.3-1.3-0.7-2.8-0.2-1.5 0.4-2.3 1.8z"/><path class="d" d="m526.5 375.7q1.3-0.4 2.7-0.5 1.3-0.1 2 0l0.7 0.1-0.6 4q-2.1-0.4-3.7 0.1-0.9 0.2-1.2 0.6-0.3 0.3-0.2 0.8 0.1 0.1 0.1 0.2 0.1 0.1 0.2 0.2 0.1 0.1 0.2 0.1 0.1 0.1 0.3 0.1 0.2 0.1 0.4 0.1 0.1 0 0.3 0 0.3 0 0.4 0 0.2 0 0.5 0 0.3 0 0.4 0 1.1 0 1.8 0.1 0.8 0.2 1.7 0.5 1 0.3 1.6 1.1 0.7 0.7 1 1.8 1.6 5.2-5.6 7.4-1.6 0.5-3.3 0.4-1.6-0.1-2.4-0.4l-0.8-0.3 1.1-4.2q0.2 0.1 0.7 0.3 0.5 0.1 1.6 0.3 1.2 0.2 2 0 1.6-0.5 1.3-1.6-0.2-0.5-0.7-0.7-0.5-0.1-1.6-0.2-1.1 0-1.8-0.2-1.6-0.3-2.7-1-1.1-0.7-1.6-2.2-0.7-2.3 0.7-4.2 1.4-1.8 4.5-2.7z"/><path class="d" d="m539.4 372.3l-1.7-5.6 5.3-1.6 1.7 5.6 3.2-0.9 1.2 4-3.2 0.9 1.4 4.9q0.6 2.1 1.8 1.8 0.3-0.1 0.6-0.4 0.3-0.2 0.4-0.3l0.2-0.2 2.6 3.8q-1.4 1.5-3.6 2.2-1.5 0.4-2.7 0.2-1.2-0.2-2.1-0.9-0.8-0.7-1.3-1.6-0.5-0.9-0.9-2l-1.7-5.9-2.2 0.7-1.2-4z"/><path class="d" d="m14 486.8v11.2q0 3.2-1.7 4.8-1.7 1.7-5.1 1.7-3.3 0-5-1.7-1.7-1.6-1.7-4.8v-11.2h3.9v10.1q0 2.1 0.7 2.9 0.7 0.8 2.1 0.8 1.5 0 2.2-0.8 0.7-0.8 0.7-2.9v-10.1z"/><path class="d" d="m19.1 504.2v-10.8h3.7v1.1q1.5-1.4 3.1-1.4 1.2 0 2.2 0.5 1 0.5 1.6 1.5 1.6-2 3.5-2 1.8 0 3 1 1.2 0.9 1.2 3v7.1h-3.7v-6.1q0-0.9-0.5-1.5-0.4-0.5-1.4-0.5-0.8 0-1.2 0.5-0.5 0.5-0.5 1.2v6.4h-3.7v-6.1q0-0.9-0.5-1.5-0.5-0.5-1.4-0.5-0.9 0-1.3 0.5-0.4 0.5-0.4 1.3v6.3z"/><path fill-rule="evenodd" class="d" d="m62.1 494.7q1.5 1.7 1.5 4.1 0 2.4-1.5 4-1.5 1.7-3.9 1.7-2.1 0-3.5-1.4v6.5h-3.7v-16.2h3.7v1.2q1.4-1.5 3.5-1.5 2.4 0 3.9 1.6zm-3.2 5.9q0.7-0.7 0.7-1.8 0-1.1-0.7-1.8-0.6-0.7-1.8-0.7-1.1 0-1.8 0.7-0.7 0.7-0.7 1.8 0 1.1 0.7 1.8 0.8 0.7 1.8 0.7 1.1 0 1.8-0.7z"/><path fill-rule="evenodd" class="d" d="m69.1 502.9q-1.8-1.6-1.8-4.1 0-2.5 1.9-4.1 1.8-1.6 4.6-1.6 2.7 0 4.6 1.6 1.8 1.6 1.8 4.1 0 2.5-1.8 4.1-1.8 1.6-4.6 1.6-2.9 0-4.7-1.6zm2.9-5.9q-0.7 0.7-0.7 1.8 0 1.1 0.6 1.8 0.7 0.7 1.9 0.7 1.1 0 1.8-0.7 0.7-0.7 0.7-1.8 0-1.1-0.8-1.8-0.7-0.7-1.7-0.7-1.1 0-1.8 0.7z"/><path fill-rule="evenodd" class="d" d="m85.4 502.8q-1.5-1.6-1.5-4 0-2.4 1.5-4 1.6-1.7 3.9-1.7 2.1 0 3.5 1.3v-8.3h3.7v18.1h-3.6v-1.2h-0.1q-1.4 1.5-3.5 1.5-2.3 0-3.9-1.7zm3.2-5.8q-0.7 0.7-0.7 1.8 0 1.1 0.7 1.8 0.7 0.7 1.8 0.7 1.1 0 1.8-0.7 0.7-0.7 0.7-1.8 0-1.1-0.7-1.8-0.8-0.7-1.8-0.7-1.1 0-1.8 0.7z"/><path class="d" d="m107.5 496.1q-1 0-1.8 0.8-0.7 0.8-0.7 1.9 0 1.1 0.7 1.9 0.8 0.7 1.8 0.7 0.5 0 1-0.1 0.5-0.1 0.7-0.2l0.1-0.2 1.3 2.6q-0.1 0.1-0.4 0.3-0.3 0.1-1.2 0.4-0.9 0.3-2 0.3-2.4 0-4.2-1.7-1.8-1.7-1.8-4 0-2.3 1.8-4 1.8-1.7 4.2-1.7 1.1 0 2 0.2 0.9 0.3 1.2 0.5l0.4 0.3-1.3 2.5q-0.6-0.5-1.8-0.5z"/><path fill-rule="evenodd" class="d" d="m115.6 502.8q-1.5-1.6-1.5-4 0-2.4 1.5-4 1.5-1.7 3.9-1.7 2.1 0 3.5 1.3v-1h3.7v10.8h-3.7v-1.2q-1.4 1.5-3.5 1.5-2.4 0-3.9-1.7zm3.2-5.8q-0.8 0.7-0.8 1.8 0 1.1 0.7 1.8 0.7 0.7 1.9 0.7 1.1 0 1.8-0.7 0.7-0.7 0.7-1.8 0-1.1-0.8-1.8-0.7-0.7-1.7-0.7-1.1 0-1.8 0.7z"/><path class="d" d="m136.6 493.1q1 0 1.9 0.2 0.9 0.2 1.3 0.4l0.5 0.2-1.3 2.5q-1.2-0.7-2.4-0.7-0.6 0-0.9 0.1-0.2 0.2-0.2 0.5 0 0.1 0 0.2 0 0.1 0.1 0.2 0.1 0 0.1 0.1 0.1 0.1 0.2 0.1 0.1 0.1 0.2 0.1 0.1 0 0.2 0.1 0.2 0.1 0.3 0.1 0.1 0 0.3 0.1 0.2 0.1 0.3 0.1 0.6 0.2 1.1 0.4 0.5 0.2 1 0.6 0.6 0.4 0.9 1 0.3 0.6 0.3 1.4 0 3.7-5.2 3.7-1.1 0-2.2-0.4-1-0.3-1.5-0.7l-0.4-0.4 1.5-2.5q0.2 0.1 0.4 0.3 0.3 0.3 1 0.6 0.7 0.3 1.3 0.3 1.1 0 1.1-0.7 0-0.4-0.3-0.6-0.3-0.2-1-0.4-0.7-0.3-1.1-0.5-1-0.5-1.6-1.2-0.6-0.7-0.6-1.7 0-1.7 1.3-2.6 1.3-0.9 3.4-0.9z"/><path class="d" d="m145.7 493.4v-4h3.7v4h2.3v2.8h-2.3v3.5q0 1.4 0.8 1.4 0.2 0 0.5 0 0.2-0.1 0.3-0.2l0.2-0.1 0.9 3q-1.2 0.7-2.8 0.7-1 0-1.8-0.4-0.7-0.3-1.1-1-0.4-0.6-0.6-1.3-0.1-0.7-0.1-1.4v-4.2h-1.6v-2.8z"/><path fill-rule="evenodd" class="d" d="m175.7 494.7q1.5 1.7 1.5 4.1 0 2.4-1.5 4-1.5 1.7-3.9 1.7-2.1 0-3.5-1.4v6.5h-3.7v-16.2h3.7v1.2q1.4-1.5 3.5-1.5 2.4 0 3.9 1.6zm-3.2 5.9q0.7-0.7 0.7-1.8 0-1.1-0.7-1.8-0.7-0.7-1.8-0.7-1.1 0-1.8 0.7-0.7 0.7-0.7 1.8 0 1.1 0.7 1.8 0.8 0.7 1.8 0.7 1.1 0 1.8-0.7z"/><path fill-rule="evenodd" class="d" d="m182.4 502.8q-1.5-1.6-1.5-4 0-2.4 1.5-4 1.5-1.7 3.9-1.7 2.1 0 3.5 1.3v-1h3.7v10.8h-3.7v-1.2q-1.4 1.5-3.5 1.5-2.4 0-3.9-1.7zm3.2-5.8q-0.8 0.7-0.8 1.8 0 1.1 0.7 1.8 0.7 0.7 1.9 0.7 1.1 0 1.8-0.7 0.7-0.7 0.7-1.8 0-1.1-0.8-1.8-0.7-0.7-1.7-0.7-1.1 0-1.8 0.7z"/><path class="d" d="m198.8 504.2v-10.8h3.7v1.6q0.1-0.1 0.2-0.2 0.1-0.2 0.4-0.5 0.3-0.3 0.6-0.6 0.4-0.2 1-0.4 0.5-0.2 1.1-0.2 0.6 0 1.2 0.2 0.6 0.1 0.9 0.3l0.3 0.2-1.6 3.1q-0.7-0.6-1.9-0.6-0.7 0-1.2 0.3-0.5 0.3-0.7 0.7-0.2 0.5-0.2 0.8-0.1 0.2-0.1 0.4v5.7z"/><path fill-rule="evenodd" class="d" d="m212.7 502.8q-1.5-1.6-1.5-4 0-2.4 1.5-4 1.5-1.7 3.9-1.7 2.1 0 3.5 1.3v-1h3.7v10.8h-3.7v-1.2q-1.4 1.5-3.5 1.5-2.4 0-3.9-1.7zm3.2-5.8q-0.8 0.7-0.7 1.8-0.1 1.1 0.6 1.8 0.7 0.7 1.9 0.7 1.1 0 1.8-0.7 0.7-0.7 0.7-1.8 0-1.1-0.8-1.8-0.7-0.7-1.7-0.7-1.1 0-1.8 0.7z"/><path class="d" d="m237.6 504.2v-10.8h3.7v1.6q0.1-0.1 0.1-0.2 0.1-0.2 0.5-0.5 0.3-0.3 0.6-0.6 0.4-0.2 0.9-0.4 0.6-0.2 1.2-0.2 0.6 0 1.2 0.2 0.6 0.1 0.9 0.3l0.3 0.2-1.6 3.1q-0.7-0.6-1.9-0.6-0.7 0-1.2 0.3-0.5 0.3-0.7 0.7-0.2 0.5-0.2 0.8-0.1 0.2-0.1 0.4v5.7z"/><path fill-rule="evenodd" class="d" d="m261.7 499.3h-7.9q0 1.1 0.8 1.7 0.7 0.5 1.6 0.5 0.9 0 1.4-0.2 0.5-0.2 1.2-1l2.7 1.4q-1.7 2.8-5.6 2.8-2.4 0-4.2-1.7-1.7-1.7-1.7-4 0-2.4 1.7-4 1.8-1.7 4.2-1.7 2.6 0 4.2 1.5 1.6 1.5 1.6 4.2 0 0.4 0 0.5zm-7.7-2.1h4q-0.1-0.8-0.6-1.2-0.6-0.5-1.4-0.5-0.9 0-1.5 0.5-0.5 0.5-0.5 1.2z"/><path class="d" d="m266.8 493.4v-2.3q0-2.4 1.1-3.8 1.2-1.5 3.1-1.5 0.9 0 1.6 0.3 0.8 0.2 1.1 0.4l0.4 0.3-1.3 2.6q-0.5-0.3-1.1-0.3-0.7 0-1 0.5-0.2 0.4-0.2 1.6v2.2h2.5v2.8h-2.5v8h-3.7v-8h-1.5v-2.8z"/><path class="d" d="m276.8 504.2v-18.1h3.7v18.1z"/><path fill-rule="evenodd" class="d" d="m296.7 499.3h-7.8q0 1.1 0.7 1.7 0.7 0.5 1.6 0.5 0.9 0 1.4-0.2 0.6-0.2 1.2-1l2.7 1.4q-1.7 2.8-5.6 2.8-2.4 0-4.2-1.7-1.7-1.7-1.7-4 0-2.4 1.7-4 1.8-1.7 4.2-1.7 2.6 0 4.2 1.5 1.6 1.5 1.6 4.2 0 0.4 0 0.5zm-7.7-2.1h4.1q-0.2-0.8-0.7-1.2-0.5-0.5-1.4-0.5-0.9 0-1.4 0.5-0.6 0.5-0.6 1.2z"/><path class="d" d="m301.8 493.4v-4h3.8v4h2.2v2.8h-2.2v3.5q0 1.4 0.8 1.4 0.2 0 0.4 0 0.3-0.1 0.4-0.2l0.1-0.1 0.9 3q-1.2 0.7-2.7 0.7-1 0-1.8-0.4-0.8-0.3-1.1-1-0.4-0.6-0.6-1.3-0.2-0.7-0.2-1.4v-4.2h-1.5v-2.8z"/><path fill-rule="evenodd" class="d" d="m312.6 487.4q0.7-0.7 1.6-0.7 0.9 0 1.5 0.7 0.7 0.7 0.7 1.6 0 0.8-0.7 1.5-0.6 0.7-1.5 0.7-0.9 0-1.6-0.7-0.6-0.7-0.6-1.5 0-0.9 0.6-1.6zm-0.3 6v10.8h3.7v-10.8z"/><path class="d" d="m321.3 504.2v-10.8h3.8v1.6q0-0.1 0.1-0.2 0.1-0.2 0.4-0.5 0.4-0.3 0.7-0.6 0.4-0.2 0.9-0.4 0.6-0.2 1.2-0.2 0.6 0 1.2 0.2 0.6 0.1 0.9 0.3l0.3 0.2-1.6 3.1q-0.7-0.6-1.9-0.6-0.7 0-1.2 0.3-0.5 0.3-0.7 0.7-0.2 0.5-0.3 0.8 0 0.2 0 0.4v5.7z"/><path class="d" d="m347.7 493.1q0.9 0 1.8 0.2 0.9 0.2 1.4 0.4l0.4 0.2-1.2 2.5q-1.2-0.7-2.4-0.7-0.6 0-0.9 0.1-0.2 0.2-0.2 0.5 0 0.1 0 0.2 0 0.1 0.1 0.2 0 0 0.1 0.1 0 0.1 0.2 0.1 0.1 0.1 0.1 0.1 0.1 0 0.3 0.1 0.2 0.1 0.2 0.1 0.1 0 0.3 0.1 0.2 0.1 0.3 0.1 0.7 0.2 1.2 0.4 0.4 0.2 1 0.6 0.5 0.4 0.8 1 0.3 0.6 0.3 1.4 0 3.7-5.1 3.7-1.1 0-2.2-0.4-1-0.3-1.5-0.7l-0.4-0.4 1.5-2.5q0.1 0.1 0.4 0.3 0.3 0.3 1 0.6 0.7 0.3 1.2 0.3 1.2 0 1.2-0.7 0-0.4-0.3-0.6-0.3-0.2-1-0.4-0.7-0.3-1.1-0.5-1-0.5-1.6-1.2-0.6-0.7-0.6-1.7 0-1.7 1.3-2.6 1.3-0.9 3.4-0.9z"/><path fill-rule="evenodd" class="d" d="m357.1 502.9q-1.8-1.6-1.8-4.1 0-2.5 1.9-4.1 1.9-1.6 4.6-1.6 2.7 0 4.6 1.6 1.8 1.6 1.8 4.1 0 2.5-1.8 4.1-1.8 1.6-4.6 1.6-2.9 0-4.7-1.6zm2.9-5.9q-0.7 0.7-0.7 1.8 0 1.1 0.7 1.8 0.7 0.7 1.8 0.7 1.1 0 1.8-0.7 0.7-0.7 0.7-1.8 0-1.1-0.7-1.8-0.7-0.7-1.8-0.7-1.1 0-1.8 0.7z"/><path fill-rule="evenodd" class="d" d="m383.8 494.8q1.5 1.6 1.5 4 0 2.4-1.5 4-1.5 1.7-3.8 1.7-2.2 0-3.5-1.5h-0.1v1.2h-3.6v-18.1h3.7v8.3q1.3-1.3 3.5-1.3 2.3 0 3.8 1.7zm-3.1 5.8q0.7-0.7 0.7-1.8 0-1.1-0.7-1.8-0.7-0.7-1.8-0.7-1.1 0-1.8 0.7-0.7 0.7-0.7 1.8 0 1.1 0.7 1.8 0.7 0.7 1.8 0.7 1.1 0 1.8-0.7z"/><path class="d" d="m389.8 504.2v-10.8h3.8v1.6q0-0.1 0.1-0.2 0.1-0.2 0.4-0.5 0.4-0.3 0.7-0.6 0.4-0.2 0.9-0.4 0.6-0.2 1.2-0.2 0.6 0 1.2 0.2 0.6 0.1 0.9 0.3l0.3 0.2-1.6 3.1q-0.7-0.6-1.9-0.6-0.7 0-1.2 0.3-0.5 0.3-0.7 0.7-0.2 0.5-0.3 0.8 0 0.2 0 0.4v5.7z"/><path fill-rule="evenodd" class="d" d="m413.9 499.3h-7.8q0 1.1 0.8 1.7 0.7 0.5 1.6 0.5 0.9 0 1.4-0.2 0.5-0.2 1.2-1l2.7 1.4q-1.7 2.8-5.6 2.8-2.4 0-4.2-1.7-1.7-1.7-1.7-4 0-2.4 1.7-4 1.8-1.7 4.2-1.7 2.6 0 4.2 1.5 1.6 1.5 1.6 4.2 0 0.4-0.1 0.5zm-7.7-2.1h4.1q-0.1-0.8-0.6-1.2-0.6-0.5-1.4-0.5-0.9 0-1.5 0.5-0.5 0.5-0.6 1.2z"/><path fill-rule="evenodd" class="d" d="m428 502.9q-1.8-1.6-1.8-4.1 0-2.5 1.8-4.1 1.9-1.6 4.7-1.6 2.7 0 4.5 1.6 1.9 1.6 1.9 4.1 0 2.5-1.8 4.1-1.8 1.6-4.6 1.6-2.9 0-4.7-1.6zm2.8-5.9q-0.7 0.7-0.7 1.8 0 1.1 0.7 1.8 0.7 0.7 1.8 0.7 1.1 0 1.8-0.7 0.7-0.7 0.7-1.8 0-1.1-0.7-1.8-0.7-0.7-1.8-0.7-1 0-1.8 0.7z"/><path fill-rule="evenodd" class="d" d="m463.2 494.7q1.5 1.7 1.5 4.1 0 2.4-1.5 4-1.5 1.7-3.9 1.7-2.1 0-3.5-1.4v6.5h-3.7v-16.2h3.6v1.2h0.1q1.4-1.5 3.5-1.5 2.4 0 3.9 1.6zm-3.2 5.9q0.7-0.7 0.7-1.8 0-1.1-0.7-1.8-0.7-0.7-1.8-0.7-1.1 0-1.8 0.7-0.7 0.7-0.7 1.8 0 1.1 0.7 1.8 0.7 0.7 1.8 0.7 1.1 0 1.8-0.7z"/><path class="d" d="m469.2 504.2v-10.8h3.7v1.6q0.1-0.1 0.2-0.2 0-0.2 0.4-0.5 0.3-0.3 0.6-0.6 0.4-0.2 1-0.4 0.5-0.2 1.1-0.2 0.6 0 1.2 0.2 0.6 0.1 0.9 0.3l0.3 0.2-1.6 3.1q-0.7-0.6-1.9-0.6-0.7 0-1.2 0.3-0.5 0.3-0.7 0.7-0.2 0.5-0.2 0.8-0.1 0.2-0.1 0.4v5.7z"/><path fill-rule="evenodd" class="d" d="m493.3 499.3h-7.8q0 1.1 0.7 1.7 0.7 0.5 1.6 0.5 0.9 0 1.4-0.2 0.5-0.2 1.2-1l2.7 1.4q-1.7 2.8-5.6 2.8-2.4 0-4.2-1.7-1.7-1.7-1.7-4 0-2.4 1.7-4 1.8-1.7 4.2-1.7 2.6 0 4.2 1.5 1.6 1.5 1.6 4.2 0 0.4 0 0.5zm-7.7-2.1h4.1q-0.2-0.8-0.7-1.2-0.5-0.5-1.4-0.5-0.9 0-1.4 0.5-0.6 0.5-0.6 1.2z"/><path class="d" d="m502.5 493.1q0.9 0 1.8 0.2 0.9 0.2 1.3 0.4l0.5 0.2-1.2 2.5q-1.3-0.7-2.4-0.7-0.7 0-0.9 0.1-0.3 0.2-0.3 0.5 0 0.1 0 0.2 0.1 0.1 0.1 0.2 0.1 0 0.1 0.1 0.1 0.1 0.2 0.1 0.1 0.1 0.2 0.1 0.1 0 0.2 0.1 0.2 0.1 0.3 0.1 0.1 0 0.3 0.1 0.2 0.1 0.3 0.1 0.6 0.2 1.1 0.4 0.5 0.2 1 0.6 0.6 0.4 0.9 1 0.3 0.6 0.3 1.4 0 3.7-5.1 3.7-1.2 0-2.2-0.4-1.1-0.3-1.5-0.7l-0.5-0.4 1.5-2.5q0.2 0.1 0.4 0.3 0.3 0.3 1 0.6 0.8 0.3 1.3 0.3 1.1 0 1.1-0.7 0-0.4-0.3-0.6-0.2-0.2-0.9-0.4-0.7-0.3-1.2-0.5-1-0.5-1.5-1.2-0.6-0.7-0.6-1.7 0-1.7 1.2-2.6 1.3-0.9 3.5-0.9z"/><path fill-rule="evenodd" class="d" d="m521.8 499.3h-7.8q-0.1 1.1 0.7 1.7 0.7 0.5 1.6 0.5 0.9 0 1.4-0.2 0.5-0.2 1.2-1l2.7 1.4q-1.7 2.8-5.6 2.8-2.4 0-4.2-1.7-1.7-1.7-1.7-4 0-2.4 1.7-4 1.8-1.7 4.2-1.7 2.6 0 4.2 1.5 1.6 1.5 1.6 4.2 0 0.4 0 0.5zm-7.7-2.1h4.1q-0.2-0.8-0.7-1.2-0.6-0.5-1.4-0.5-0.9 0-1.4 0.5-0.6 0.5-0.6 1.2z"/><path class="d" d="m526.3 504.2v-10.8h3.7v1.1q1.5-1.4 3.1-1.4 0.8 0 1.6 0.2 0.8 0.2 1.5 0.7 0.7 0.4 1.2 1.2 0.4 0.8 0.4 1.9v7.1h-3.7v-6.1q0-0.9-0.5-1.5-0.5-0.6-1.4-0.6-0.8 0-1.5 0.6-0.7 0.7-0.7 1.5v6.1z"/><path class="d" d="m543.5 493.4v-4h3.8v4h2.2v2.8h-2.2v3.5q0 1.4 0.8 1.4 0.2 0 0.4 0 0.3-0.1 0.4-0.2l0.1-0.1 0.9 3q-1.2 0.7-2.7 0.7-1 0-1.8-0.4-0.7-0.3-1.1-1-0.4-0.6-0.6-1.3-0.2-0.7-0.2-1.4v-4.2h-1.5v-2.8z"/><path fill-rule="evenodd" class="d" d="m564.9 499.3h-7.9q0 1.1 0.8 1.7 0.7 0.5 1.6 0.5 0.9 0 1.4-0.2 0.5-0.2 1.2-1l2.7 1.4q-1.7 2.8-5.6 2.8-2.4 0-4.2-1.7-1.7-1.7-1.7-4 0-2.4 1.7-4 1.8-1.7 4.2-1.7 2.6 0 4.2 1.5 1.6 1.5 1.6 4.2 0 0.4 0 0.5zm-7.7-2.1h4q-0.1-0.8-0.6-1.2-0.6-0.5-1.4-0.5-0.9 0-1.5 0.5-0.5 0.5-0.5 1.2z"/><path fill-rule="evenodd" class="d" d="m38.9 528.6h-7.8q0 1.1 0.7 1.6 0.8 0.6 1.6 0.6 0.9 0 1.5-0.2 0.5-0.3 1.2-1l2.7 1.3q-1.7 2.8-5.6 2.8-2.5 0-4.2-1.6-1.7-1.7-1.7-4 0-2.4 1.7-4.1 1.7-1.7 4.2-1.7 2.5 0 4.1 1.5 1.7 1.5 1.7 4.3 0 0.3-0.1 0.5zm-7.7-2.1h4.1q-0.1-0.8-0.7-1.3-0.5-0.4-1.3-0.4-0.9 0-1.5 0.4-0.5 0.5-0.6 1.3z"/><path fill-rule="evenodd" class="d" d="m53 532.1q-1.8-1.5-1.8-4 0-2.5 1.8-4.2 1.9-1.6 4.6-1.6 2.8 0 4.6 1.7 1.9 1.6 1.9 4.1 0 2.4-1.9 4-1.8 1.6-4.6 1.6-2.9 0-4.6-1.6zm2.8-5.9q-0.7 0.7-0.7 1.9 0 1.1 0.7 1.8 0.7 0.7 1.8 0.7 1.1 0 1.8-0.7 0.7-0.8 0.7-1.8 0-1.2-0.7-1.9-0.7-0.7-1.8-0.7-1.1 0-1.8 0.7z"/><path class="d" d="m77.7 522.7v-2.3q0-2.5 1.1-3.9 1.1-1.4 3.1-1.4 0.8 0 1.6 0.2 0.8 0.2 1.1 0.5l0.4 0.2-1.3 2.6q-0.5-0.2-1.1-0.3-0.8 0-1 0.5-0.2 0.5-0.2 1.7v2.2h2.5v2.8h-2.5v7.9h-3.7v-7.9h-1.6v-2.8z"/><path class="d" d="m91.2 522.7v5.1q0 1.6 0.5 2.3 0.4 0.6 1.6 0.6 1.2 0 1.6-0.6 0.5-0.7 0.5-2.3v-5.1h3.7v6q0 2.7-1.4 3.9-1.4 1.1-4.4 1.1-3 0-4.5-1.1-1.3-1.2-1.3-3.9v-6z"/><path class="d" d="m104.8 522.7v-4.1h3.7v4.1h2.3v2.8h-2.3v3.4q0 1.5 0.9 1.5 0.2 0 0.4-0.1 0.3-0.1 0.4-0.2h0.1l0.9 3q-1.2 0.6-2.7 0.6-1 0-1.8-0.3-0.8-0.4-1.2-1-0.3-0.6-0.5-1.3-0.2-0.7-0.2-1.5v-4.1h-1.5v-2.8z"/><path class="d" d="m118.7 522.7v5.1q0 1.6 0.5 2.3 0.5 0.6 1.7 0.6 1.1 0 1.6-0.6 0.5-0.7 0.5-2.3v-5.1h3.7v6q0 2.7-1.4 3.9-1.4 1.1-4.4 1.1-3.1 0-4.5-1.1-1.4-1.2-1.4-3.9v-6z"/><path class="d" d="m131.8 533.4v-10.7h3.7v1.5q0.1-0.1 0.2-0.2 0.1-0.1 0.4-0.4 0.3-0.4 0.6-0.6 0.4-0.3 1-0.5 0.5-0.2 1.1-0.2 0.6 0 1.2 0.2 0.6 0.2 0.9 0.3l0.3 0.2-1.6 3.2q-0.7-0.6-1.9-0.6-0.7 0-1.2 0.3-0.4 0.3-0.6 0.7-0.3 0.4-0.3 0.7-0.1 0.3-0.1 0.5v5.6z"/><path fill-rule="evenodd" class="d" d="m146 532.1q-1.8-1.5-1.8-4 0-2.5 1.9-4.2 1.8-1.6 4.6-1.6 2.7 0 4.6 1.7 1.8 1.6 1.8 4.1 0 2.4-1.8 4-1.8 1.6-4.6 1.6-2.9 0-4.7-1.6zm2.9-5.9q-0.7 0.7-0.7 1.9 0 1.1 0.6 1.8 0.7 0.7 1.9 0.7 1.1 0 1.8-0.7 0.7-0.8 0.7-1.8 0-1.2-0.8-1.9-0.7-0.7-1.7-0.7-1.1 0-1.8 0.7z"/><path fill-rule="evenodd" class="d" d="m170.8 532.1q-1.5-1.7-1.5-4 0-2.4 1.5-4.1 1.5-1.7 3.9-1.7 2.1 0 3.5 1.4v-8.3h3.7v18h-3.7v-1.2q-1.4 1.5-3.5 1.5-2.4 0-3.9-1.6zm3.2-5.9q-0.7 0.7-0.7 1.9 0 1.1 0.7 1.8 0.6 0.7 1.8 0.7 1.1 0 1.8-0.7 0.7-0.8 0.7-1.8 0-1.2-0.7-1.9-0.8-0.7-1.8-0.7-1.1 0-1.8 0.7z"/><path fill-rule="evenodd" class="d" d="m187.9 532.1q-1.5-1.7-1.5-4 0-2.4 1.5-4.1 1.5-1.7 3.9-1.7 2.1 0 3.5 1.4v-1h3.7v10.7h-3.7v-1.2q-1.4 1.5-3.5 1.5-2.4 0-3.9-1.6zm3.2-5.9q-0.7 0.7-0.7 1.9 0 1.1 0.7 1.8 0.6 0.7 1.8 0.7 1.1 0 1.8-0.7 0.7-0.8 0.7-1.8 0-1.2-0.8-1.9-0.7-0.7-1.7-0.7-1.1 0-1.8 0.7z"/><path class="d" d="m222.7 516.1v3.5h-6v3.4h5.7v3.5h-5.7v3.5h6v3.4h-9.9v-17.3z"/><path class="d" d="m227.7 533.4v-10.7h3.7v1.1h0.1q1.4-1.5 3-1.5 0.8 0 1.6 0.3 0.8 0.2 1.5 0.6 0.8 0.4 1.2 1.3 0.5 0.8 0.5 1.8v7.1h-3.8v-6.1q0-0.8-0.5-1.4-0.5-0.7-1.4-0.7-0.8 0-1.5 0.7-0.7 0.6-0.7 1.4v6.1z"/><path fill-rule="evenodd" class="d" d="m243.9 536.1l3-1.5q0.8 1.4 2.9 1.4 1 0 1.8-0.7 0.8-0.6 0.8-1.9v-0.8q-1 1.1-3.5 1.1-2.3 0-3.8-1.6-1.5-1.7-1.5-4 0-2.4 1.5-4.1 1.5-1.7 3.8-1.7 2.1 0 3.5 1.3v-0.9h3.7v11q0 2.6-1.7 4.1-1.7 1.4-4.6 1.4-4.6 0-5.9-3.1zm4.3-9.9q-0.7 0.7-0.7 1.9 0 1.1 0.7 1.8 0.7 0.7 1.8 0.7 1.1 0 1.8-0.7 0.7-0.8 0.7-1.8 0-1.2-0.7-1.9-0.7-0.7-1.8-0.7-1.1 0-1.8 0.7z"/><path fill-rule="evenodd" class="d" d="m272.3 528.6h-7.8q0 1.1 0.7 1.6 0.8 0.6 1.6 0.6 0.9 0 1.5-0.2 0.5-0.3 1.2-1l2.7 1.3q-1.7 2.8-5.6 2.8-2.5 0-4.2-1.6-1.7-1.7-1.7-4 0-2.4 1.7-4.1 1.7-1.7 4.2-1.7 2.5 0 4.1 1.5 1.7 1.5 1.7 4.3 0 0.3-0.1 0.5zm-7.7-2.1h4.1q-0.1-0.8-0.7-1.3-0.5-0.4-1.3-0.4-0.9 0-1.5 0.4-0.5 0.5-0.6 1.3z"/><path class="d" d="m276.8 533.4v-10.7h3.8v1.1q1.4-1.5 3.1-1.5 0.8 0 1.6 0.3 0.8 0.2 1.5 0.6 0.7 0.4 1.2 1.3 0.4 0.8 0.4 1.8v7.1h-3.7v-6.1q0-0.8-0.5-1.4-0.6-0.7-1.4-0.7-0.9 0-1.6 0.7-0.6 0.6-0.6 1.4v6.1z"/><path class="d" d="m293.5 533.4v-18h3.7v8.4q1.5-1.5 3.1-1.5 0.8 0 1.6 0.3 0.8 0.2 1.5 0.6 0.7 0.4 1.2 1.3 0.4 0.8 0.4 1.8v7.1h-3.7v-6.1q0-0.8-0.5-1.4-0.5-0.7-1.4-0.7-0.8 0-1.5 0.7-0.7 0.6-0.7 1.4v6.1z"/><path fill-rule="evenodd" class="d" d="m310.8 532.1q-1.5-1.7-1.5-4 0-2.4 1.5-4.1 1.5-1.7 3.9-1.7 2.1 0 3.5 1.4v-1h3.7v10.7h-3.6v-1.2h-0.1q-1.4 1.5-3.5 1.5-2.4 0-3.9-1.6zm3.2-5.9q-0.7 0.7-0.7 1.9 0 1.1 0.7 1.8 0.7 0.7 1.8 0.7 1.1 0 1.8-0.7 0.7-0.8 0.7-1.8 0-1.2-0.7-1.9-0.8-0.7-1.8-0.7-1.1 0-1.8 0.7z"/><path class="d" d="m327.2 533.4v-10.7h3.7v1.5h0.1q0-0.1 0.1-0.2 0.1-0.1 0.4-0.4 0.3-0.4 0.7-0.6 0.3-0.3 0.9-0.5 0.6-0.2 1.2-0.2 0.6 0 1.1 0.2 0.6 0.2 0.9 0.3l0.3 0.2-1.6 3.2q-0.6-0.6-1.9-0.6-0.6 0-1.1 0.3-0.5 0.3-0.7 0.7-0.2 0.4-0.3 0.7-0.1 0.3-0.1 0.5v5.6z"/><path fill-rule="evenodd" class="d" d="m340.8 516.6q0.6-0.6 1.5-0.6 0.9 0 1.6 0.6 0.6 0.7 0.6 1.6 0 0.9-0.6 1.6-0.7 0.6-1.6 0.6-0.9 0-1.5-0.6-0.7-0.7-0.7-1.6 0-0.9 0.7-1.6zm-0.4 6.1v10.7h3.7v-10.7z"/><path fill-rule="evenodd" class="d" d="m350.2 532.1q-1.5-1.7-1.5-4 0-2.4 1.5-4.1 1.5-1.7 3.9-1.7 2.1 0 3.5 1.4v-1h3.7v10.7h-3.7v-1.2q-1.4 1.5-3.5 1.5-2.4 0-3.9-1.6zm3.2-5.9q-0.7 0.7-0.7 1.9 0 1.1 0.7 1.8 0.7 0.7 1.8 0.7 1.1 0 1.8-0.7 0.7-0.8 0.7-1.8 0-1.2-0.7-1.9-0.8-0.7-1.8-0.7-1.1 0-1.8 0.7z"/><path fill-rule="evenodd" class="d" d="m375.8 532.1q-1.5-1.7-1.5-4 0-2.4 1.5-4.1 1.5-1.7 3.9-1.7 2.1 0 3.5 1.4v-8.3h3.7v18h-3.7v-1.2q-1.4 1.5-3.5 1.5-2.4 0-3.9-1.6zm3.2-5.9q-0.7 0.7-0.7 1.9 0 1.1 0.6 1.8 0.7 0.7 1.9 0.7 1.1 0 1.8-0.7 0.7-0.8 0.7-1.8 0-1.2-0.8-1.9-0.7-0.7-1.7-0.7-1.1 0-1.8 0.7z"/><path fill-rule="evenodd" class="d" d="m403.1 528.6h-7.8q0 1.1 0.7 1.6 0.7 0.6 1.6 0.6 0.9 0 1.4-0.2 0.5-0.3 1.2-1l2.7 1.3q-1.7 2.8-5.6 2.8-2.4 0-4.2-1.6-1.7-1.7-1.7-4 0-2.4 1.7-4.1 1.8-1.7 4.2-1.7 2.6 0 4.2 1.5 1.6 1.5 1.6 4.3 0 0.3 0 0.5zm-7.7-2.1h4.1q-0.2-0.8-0.7-1.3-0.5-0.4-1.4-0.4-0.9 0-1.4 0.4-0.6 0.5-0.6 1.3z"/><path class="d" d="m422.5 515.8q1.4 0 2.7 0.4 1.3 0.4 2 0.8l0.6 0.4-1.6 3.2q-0.2-0.2-0.5-0.3-0.3-0.2-1.2-0.6-1-0.3-1.8-0.3-1 0-1.5 0.4-0.5 0.4-0.5 1.1 0 0.4 0.2 0.7 0.3 0.3 0.9 0.6 0.6 0.4 1 0.6 0.5 0.2 1.5 0.6 1.7 0.7 2.9 2 1.1 1.2 1.1 2.8 0 1.4-0.5 2.6-0.5 1.1-1.5 1.7-0.9 0.6-2.1 0.9-1.1 0.3-2.4 0.3-1.1 0-2.2-0.2-1.1-0.2-1.9-0.6-0.7-0.3-1.3-0.6-0.6-0.4-0.8-0.6l-0.3-0.2 2-3.4q0.2 0.3 0.7 0.6 0.4 0.3 1.5 0.8 1.2 0.6 2 0.6 2.5 0 2.5-1.7 0-0.4-0.2-0.7-0.1-0.3-0.6-0.6-0.5-0.3-0.8-0.5-0.3-0.1-1.1-0.5-0.8-0.4-1.2-0.6-1.6-0.7-2.4-1.9-0.9-1.2-0.9-2.5 0-2.3 1.7-3.8 1.7-1.5 4-1.5z"/><path fill-rule="evenodd" class="d" d="m434 532.1q-1.8-1.5-1.8-4 0-2.5 1.8-4.2 1.9-1.6 4.6-1.6 2.8 0 4.6 1.7 1.9 1.6 1.9 4.1 0 2.4-1.8 4-1.9 1.6-4.7 1.6-2.9 0-4.6-1.6zm2.8-5.9q-0.7 0.7-0.7 1.9 0 1.1 0.7 1.8 0.7 0.7 1.8 0.7 1.1 0 1.8-0.7 0.7-0.8 0.7-1.8 0-1.2-0.7-1.9-0.7-0.7-1.8-0.7-1.1 0-1.8 0.7z"/><path class="d" d="m450.2 522.7v-2.3q0-2.5 1.1-3.9 1.1-1.4 3.1-1.4 0.9 0 1.6 0.2 0.8 0.2 1.1 0.5l0.4 0.2-1.3 2.6q-0.5-0.2-1.1-0.3-0.7 0-1 0.5-0.2 0.5-0.2 1.7v2.2h2.5v2.8h-2.5v7.9h-3.7v-7.9h-1.6v-2.8z"/><path class="d" d="m460.8 522.7v-4.1h3.7v4.1h2.3v2.8h-2.3v3.4q0 1.5 0.9 1.5 0.2 0 0.4-0.1 0.3-0.1 0.4-0.2h0.1l0.9 3q-1.2 0.6-2.7 0.6-1.1 0-1.8-0.3-0.8-0.4-1.2-1-0.4-0.6-0.5-1.3-0.2-0.7-0.2-1.5v-4.1h-1.5v-2.8z"/><path class="d" d="m477.9 533.4h-2.6l-5.7-10.7h4.2l2.7 5.8 2.6-5.8h2.5l2.6 5.8 2.6-5.8h4.3l-5.8 10.7h-2.5l-2.5-5.5z"/><path fill-rule="evenodd" class="d" d="m495.4 532.1q-1.5-1.7-1.5-4 0-2.4 1.5-4.1 1.5-1.7 3.9-1.7 2.1 0 3.5 1.4v-1h3.7v10.7h-3.7v-1.2q-1.4 1.5-3.5 1.5-2.4 0-3.9-1.6zm3.2-5.9q-0.7 0.7-0.7 1.9 0 1.1 0.7 1.8 0.6 0.7 1.8 0.7 1.1 0 1.8-0.7 0.7-0.8 0.7-1.8 0-1.2-0.7-1.9-0.8-0.7-1.8-0.7-1.1 0-1.8 0.7z"/><path class="d" d="m511.8 533.4v-10.7h3.7v1.5q0.1-0.1 0.2-0.2 0.1-0.1 0.4-0.4 0.3-0.4 0.7-0.6 0.3-0.3 0.9-0.5 0.6-0.2 1.1-0.2 0.6 0 1.2 0.2 0.6 0.2 0.9 0.3l0.3 0.2-1.6 3.2q-0.7-0.6-1.9-0.6-0.7 0-1.1 0.3-0.5 0.3-0.7 0.7-0.2 0.4-0.3 0.7-0.1 0.3-0.1 0.5v5.6z"/><path fill-rule="evenodd" class="d" d="m535.9 528.6h-7.8q0 1.1 0.7 1.6 0.7 0.6 1.6 0.6 0.9 0 1.4-0.2 0.6-0.3 1.2-1l2.7 1.3q-1.7 2.8-5.6 2.8-2.4 0-4.1-1.6-1.8-1.7-1.8-4 0-2.4 1.8-4.1 1.7-1.7 4.1-1.7 2.6 0 4.2 1.5 1.6 1.5 1.6 4.3 0 0.3 0 0.5zm-7.7-2.1h4.1q-0.1-0.8-0.7-1.3-0.5-0.4-1.3-0.4-1 0-1.5 0.4-0.6 0.5-0.6 1.3z"/><path class="d" d="m542.8 528.9q1 0 1.7 0.7 0.7 0.7 0.7 1.7 0 1-0.7 1.7-0.7 0.7-1.7 0.7-1 0-1.7-0.7-0.7-0.7-0.7-1.7 0-1 0.7-1.7 0.7-0.7 1.7-0.7z"/></svg>
