<svg version="1.2" xmlns="http://www.w3.org/2000/svg" viewBox="0 0 587 540" width="587" height="540">
  <g id="Symbols" stroke="none" stroke-width="1">
    <g id="Artboard">
        <g id="R_Reaktor" transform="translate(120.000000, 4.000000) scale(15)">
        <polygon class="animate-up" id="Fill-1" points="0 4.99769647 0 35.9744259 6.85512022 35.9744259 6.85512022 24.82452 10.1999998 24.82452 10.1999998 18.6207318 6.85512022 18.6207318 6.85512022 11.7658376 10.1999998 11.7700005 10.1999998 4.99769647"></polygon>
        <path class="animate-down" d="M17.1219399,21.1910682 C20.775153,19.4012329 23.2605683,16.2733271 23.2605683,11.2629035 C23.2605683,4.78325647 17.4604372,-1.41176471e-05 11.177388,-1.41176471e-05 L10,-1.41176471e-05 L10,7.07568 L10.9203005,7.07568 C14.3163552,7.07568 16.4104918,9.18535059 16.4104918,11.5881741 C16.4104918,13.9914212 14.3163552,16.0866918 10.9203005,16.0866918 L10,16.0866918 L10,24.8245271 L11.0514372,24.8245271 L17.6834262,35.9567153 L25.8464317,35.9567153 L17.1219399,21.1910682 Z" id="Fill-2"></path>
      </g>
    </g>
  </g>
</svg>
