<svg width="170" height="32" viewBox="0 0 170 32" fill="none" xmlns="http://www.w3.org/2000/svg">
<path d="M117.458 29.1039L122.146 32L135.436 10.49L148.711 31.9879L153.401 29.0968L135.436 -8.81394e-07L117.458 29.1039Z" fill="url(#paint0_linear_747_3880)"/>
<path d="M145.186 9.52966L148.44 14.7498L151.072 10.49L164.346 31.9879L169.038 29.0968L151.072 3.35212e-05L145.186 9.52966Z" fill="url(#paint1_linear_747_3880)"/>
<path d="M165.206 1.64526C163.994 1.64526 163.008 2.62892 163.008 3.83766C163.008 5.04924 163.994 6.03481 165.206 6.03481C166.414 6.03481 167.397 5.04924 167.397 3.83766C167.397 2.62892 166.414 1.64526 165.206 1.64526ZM165.206 7.65112C163.103 7.65112 161.392 5.94046 161.392 3.83766C161.392 1.7377 163.103 0.0289409 165.206 0.0289409C167.306 0.0289409 169.014 1.7377 169.014 3.83766C169.014 5.94046 167.306 7.65112 165.206 7.65112Z" fill="#8A0E13"/>
<path fill-rule="evenodd" clip-rule="evenodd" d="M38.1517 6.79041V21.7391C38.1517 21.9804 38.257 22.1726 38.4682 22.3159C38.679 22.4592 38.9279 22.5305 39.2145 22.5305H47.2654C47.5221 22.5305 47.7179 22.4253 47.8534 22.214C47.9893 22.0032 48.0573 21.7615 48.0573 21.4901C48.0573 21.1887 47.9855 20.9328 47.8422 20.7215C47.6987 20.5104 47.5066 20.4047 47.2654 20.4047H40.5487V15.2033H44.0316C44.2878 15.2033 44.4838 15.1092 44.6195 14.9205C44.755 14.732 44.823 14.5174 44.823 14.2757C44.823 14.0045 44.7512 13.775 44.6084 13.586C44.4651 13.398 44.2726 13.3034 44.0316 13.3034H40.5487V8.12439H47.2654C47.5066 8.12439 47.6987 8.01911 47.8422 7.80783C47.9855 7.59703 48.0573 7.34059 48.0573 7.03901C48.0573 6.7676 47.9893 6.52661 47.8534 6.31533C47.7179 6.10429 47.5221 5.99854 47.2654 5.99854H39.2145C38.9279 5.99854 38.679 6.07031 38.4682 6.21362C38.257 6.35692 38.1517 6.54919 38.1517 6.79041ZM27.5905 20.4047H30.2589C32.0525 20.4047 32.9499 19.4322 32.9499 17.4874V11.0419C32.9499 9.09691 32.0525 8.12441 30.2589 8.12441H27.5905V20.4047ZM25.193 21.7615V6.76762C25.193 6.55658 25.2949 6.37572 25.4984 6.22481C25.702 6.07413 25.9542 5.99856 26.256 5.99856H30.2589C31.7963 5.99856 33.0295 6.40567 33.9566 7.21988C34.8835 8.0341 35.3474 9.30819 35.3474 11.0419V17.4874C35.3474 19.2212 34.8835 20.495 33.9566 21.3095C33.0295 22.1234 31.7963 22.5306 30.2589 22.5306H26.256C25.9542 22.5306 25.702 22.4552 25.4984 22.3045C25.2949 22.1539 25.193 21.973 25.193 21.7615ZM0 11.0418V17.623C0 19.357 0.459394 20.6308 1.37961 21.4451C2.29887 22.2593 3.50546 22.6662 4.99796 22.6662C6.53561 22.6662 7.77951 22.2745 8.72943 21.4902C9.67935 20.7067 10.1544 19.6888 10.1544 18.4373C10.1544 17.9548 10.0598 17.6271 9.87162 17.4534C9.68268 17.2803 9.36992 17.1934 8.93287 17.1934C8.19423 17.1934 7.80209 17.4574 7.75717 17.9848C7.72651 18.3168 7.68136 18.5955 7.62147 18.8216C7.56087 19.0478 7.45178 19.3118 7.2935 19.6132C7.13498 19.9148 6.87498 20.1446 6.51303 20.3029C6.15131 20.4614 5.69905 20.5403 5.15624 20.5403C3.31652 20.5403 2.39726 19.568 2.39726 17.623V11.0418C2.39726 9.09681 3.30179 8.12455 5.11085 8.12455C6.78444 8.12455 7.66639 8.93116 7.75717 10.5444C7.77191 11.0722 8.17165 11.3358 8.95568 11.3358C9.39274 11.3358 9.70193 11.2493 9.88303 11.0758C10.0636 10.9025 10.1544 10.5746 10.1544 10.0919C10.1544 8.886 9.68268 7.9021 8.74084 7.14064C7.79829 6.37966 6.55842 5.99869 5.02054 5.99869C3.52804 5.99869 2.31788 6.40556 1.39078 7.21978C0.463434 8.034 0 9.30809 0 11.0418ZM17.3005 20.5403C15.5212 20.5403 14.6319 19.568 14.6319 17.623V11.0418C14.6319 9.09681 15.5212 8.12455 17.3005 8.12455C18.1599 8.12455 18.823 8.36577 19.2907 8.84822C19.7577 9.3309 19.9918 10.0619 19.9918 11.0418V17.623C19.9918 18.6031 19.7577 19.3342 19.2907 19.8166C18.823 20.2993 18.1599 20.5403 17.3005 20.5403ZM12.2346 11.0418V17.623C12.2346 19.357 12.6942 20.6308 13.6142 21.4451C14.5337 22.2593 15.7626 22.6662 17.3005 22.6662C18.8382 22.6662 20.0707 22.2593 20.998 21.4451C21.9254 20.6308 22.389 19.357 22.389 17.623V11.0418C22.389 9.30809 21.9254 8.034 20.998 7.21978C20.0707 6.40556 18.8382 5.99869 17.3005 5.99869C15.7626 5.99869 14.5337 6.40556 13.6142 7.21978C12.6942 8.034 12.2346 9.30809 12.2346 11.0418Z" fill="#1A171B"/>
<path fill-rule="evenodd" clip-rule="evenodd" d="M54.502 21.7391V7.19729C54.502 6.79041 54.6148 6.48859 54.8413 6.29276C55.0673 6.09693 55.3535 5.99854 55.7002 5.99854C56.1375 5.99854 56.4957 6.09289 56.7749 6.28135C57.0537 6.47005 57.3289 6.82796 57.6003 7.3558L60.7666 13.3486L63.9776 7.3558C64.249 6.82796 64.5204 6.47005 64.7919 6.28135C65.063 6.09289 65.4171 5.99854 65.8547 5.99854C66.2012 5.99854 66.488 6.09693 66.714 6.29276C66.9405 6.48859 67.0534 6.79041 67.0534 7.19729V21.7391C67.0534 21.9804 66.9365 22.1726 66.7026 22.3159C66.4688 22.4592 66.186 22.5305 65.8547 22.5305C65.5383 22.5305 65.2591 22.4592 65.0179 22.3159C64.7764 22.1726 64.6564 21.9804 64.6564 21.7391V10.8836L61.6255 16.4923C61.3995 16.8541 61.1053 17.0349 60.7438 17.0349C60.3819 17.0349 60.1105 16.8541 59.9294 16.4923L56.899 10.7479V21.7391C56.899 21.9804 56.7823 22.1726 56.5482 22.3159C56.3143 22.4592 56.0318 22.5305 55.7002 22.5305C55.3839 22.5305 55.1047 22.4592 54.8634 22.3159C54.6222 22.1726 54.502 21.9804 54.502 21.7391ZM70.0388 21.7391V6.7676C70.0388 6.5114 70.155 6.31914 70.3888 6.19104C70.6229 6.06294 70.9055 5.99854 71.237 5.99854C71.5686 5.99854 71.8511 6.06294 72.085 6.19104C72.3191 6.31914 72.4358 6.5114 72.4358 6.7676V21.7391C72.4358 21.9804 72.3191 22.1726 72.085 22.3159C71.8511 22.4592 71.5686 22.5305 71.237 22.5305C70.9207 22.5305 70.6415 22.4592 70.4002 22.3159C70.159 22.1726 70.0388 21.9804 70.0388 21.7391ZM75.4209 6.79041V21.7391C75.4209 21.9804 75.5411 22.1726 75.7824 22.3159C76.0236 22.4592 76.3028 22.5305 76.6192 22.5305C76.9507 22.5305 77.2333 22.4592 77.4671 22.3159C77.7012 22.1726 77.8179 21.9804 77.8179 21.7391V11.3584L83.223 21.6486C83.5398 22.2366 84.0146 22.5305 84.6477 22.5305C84.9793 22.5305 85.2621 22.4592 85.4959 22.3159C85.7293 22.1726 85.8465 21.9804 85.8465 21.7391V6.7676C85.8465 6.5114 85.7293 6.31914 85.4959 6.19104C85.2621 6.06294 84.9793 5.99854 84.6477 5.99854C84.316 5.99854 84.0332 6.06294 83.7998 6.19104C83.5659 6.31914 83.4492 6.5114 83.4492 6.7676V17.148L78.4287 7.3558C78.1573 6.82796 77.8932 6.47005 77.6371 6.28135C77.3806 6.09289 77.0412 5.99854 76.6192 5.99854C75.8199 5.99854 75.4209 6.26257 75.4209 6.79041ZM88.8317 21.7391V6.79041C88.8317 6.54919 88.9369 6.35692 89.1482 6.21362C89.359 6.07031 89.6078 5.99854 89.8945 5.99854H97.9454C98.202 5.99854 98.3979 6.10429 98.5333 6.31533C98.6693 6.52661 98.7373 6.7676 98.7373 7.03901C98.7373 7.34059 98.6655 7.59703 98.5222 7.80783C98.3786 8.01911 98.1866 8.12439 97.9454 8.12439H91.2287V13.3034H94.7116C94.9525 13.3034 95.145 13.398 95.2884 13.586C95.4312 13.775 95.503 14.0045 95.503 14.2757C95.503 14.5174 95.435 14.732 95.2995 14.9205C95.1638 15.1092 94.9678 15.2033 94.7116 15.2033H91.2287V20.4047H97.9454C98.1866 20.4047 98.3786 20.5104 98.5222 20.7215C98.6655 20.9328 98.7373 21.1887 98.7373 21.4901C98.7373 21.7615 98.6693 22.0032 98.5333 22.214C98.3979 22.4253 98.202 22.5305 97.9454 22.5305H89.8945C89.6078 22.5305 89.359 22.4592 89.1482 22.3159C88.9369 22.1726 88.8317 21.9804 88.8317 21.7391ZM105.748 13.507H103.034V8.1245H105.748C107.617 8.1245 108.552 9.0219 108.552 10.8157C108.552 12.6101 107.617 13.507 105.748 13.507ZM100.659 6.76771V21.739C100.659 21.9805 100.776 22.1725 101.01 22.3158C101.243 22.4591 101.519 22.5306 101.835 22.5306C102.167 22.5306 102.45 22.4589 102.684 22.3151C102.917 22.1715 103.034 21.9788 103.034 21.7366V15.4066H105.318L108.62 21.8951C108.861 22.364 109.178 22.5986 109.57 22.5986C109.916 22.5986 110.244 22.4703 110.554 22.2129C110.862 21.9555 111.017 21.6758 111.017 21.3732C111.017 21.2525 110.986 21.1392 110.927 21.0334L107.761 15.0715C108.74 14.831 109.517 14.3469 110.09 13.6185C110.663 12.8907 110.949 11.8885 110.949 10.6121C110.949 7.53654 109.215 5.99865 105.748 5.99865H101.451C101.225 5.99865 101.036 6.07422 100.886 6.2249C100.735 6.37558 100.659 6.55667 100.659 6.76771Z" fill="#3D3D3F"/>
<defs>
<linearGradient id="paint0_linear_747_3880" x1="116.771" y1="15.5511" x2="169.475" y2="15.5511" gradientUnits="userSpaceOnUse">
<stop stop-color="#E22019"/>
<stop offset="1" stop-color="#8B1B13"/>
</linearGradient>
<linearGradient id="paint1_linear_747_3880" x1="116.771" y1="15.5511" x2="169.475" y2="15.5511" gradientUnits="userSpaceOnUse">
<stop stop-color="#E22019"/>
<stop offset="1" stop-color="#8B1B13"/>
</linearGradient>
</defs>
</svg>
