<svg version="1.2" xmlns="http://www.w3.org/2000/svg" viewBox="0 0 120 120" width="120" height="120">
	<title>New_Logo_TEMPEST_2023 (2)-ai</title>
	<style>
		.s0 { fill: #dde31c } 
		.s1 { fill: #1e1a1c } 
		.s2 { fill: #1d191b } 
	</style>
	<g id="&lt;Group&gt;">
		<g id="&lt;Group&gt;">
			<path id="&lt;Path&gt;" class="s0" d="m119.5 104.2v-87.8c0-8.6-6.9-15.6-15.5-15.6h-87.9c-8.6 0-15.5 7-15.5 15.6v87.8c0 8.6 6.9 15.6 15.5 15.6h87.9c8.6 0 15.5-7 15.5-15.6z"/>
			<g id="&lt;Group&gt;">
				<g id="&lt;Group&gt;">
					<path id="&lt;Path&gt;" class="s1" d="m29.2 65.9l4.7 4.8 5.2-5-4.7-4.9z"/>
					<path id="&lt;Path&gt;" class="s1" d="m11 54.7l4.7 4.8 3.5-3.4-4.7-4.8z"/>
					<path id="&lt;Path&gt;" class="s2" d="m36.4 18.6l-4.7-4.8-4.8 4.7 4.7 4.8z"/>
					<path id="&lt;Path&gt;" class="s1" d="m35.8 33.6l3.2-3.1-4.7-4.8-3.2 3.1z"/>
					<path id="&lt;Path&gt;" class="s1" d="m69.6 100.1l-4.7-4.8-5.8 5.7 4.7 4.8z"/>
					<path id="&lt;Path&gt;" class="s1" d="m63.6 110.8l4.7 4.8 5-4.8-4.7-4.8z"/>
					<path id="&lt;Path&gt;" class="s1" d="m108.4 60c-1-3.9-3.4-7.9-7-11.6-4.7-4.9-10.2-7.2-16.2-7-4.2 0.1-8.2 1.4-11.7 3.2q0.4-1.8 0.5-3.8c0.5-8.7-3.4-17.4-11.6-25.9-1.1-1.2-5.3-5.3-10.8-7.7-2.5-1.1-4.9-1.7-7.1-1.7-2.8 0-5.3 1-7.2 2.9q0 0 0 0l-4.2 4.1 4.7 4.8 4.2-4.1c0.6-0.7 1.5-1 2.5-1 0.9 0 1.9 0.2 3 0.6l-11.9 11.6 4.7 4.8 13.4-13c1 0.8 1.9 1.5 2.7 2.3l-15.2 14.8 4.7 4.8 15.1-14.7q1.1 1.5 2.1 3l-12.4 12 4.7 4.8 10.8-10.5q1.3 3.9 1.1 7.6c-0.2 3.7-1.5 7.3-3.8 10.7q-0.8 1.1-1.5 1.9c-4.2-3.9-10.4-9.1-17.4-12.1-11-4.8-17.9-1.4-21.6 2.3q0 0-0.1 0l-7.2 7 4.7 4.9 7.2-7.1c1.8-1.7 3.8-2.6 6.2-2.7q0.9 0 1.8 0l-15.5 15.1 4.7 4.8 18.1-17.7q1.6 0.8 3.3 1.8l-10.6 10.4 4.6 4.8 11.7-11.3c2.6 2 5.2 4.4 7.8 7q3 3.2 5.6 6l-13.6 13.2 4.7 4.8 13.3-12.9q1.2 1.4 2.2 2.7l-17 16.6 4.7 4.9 16.3-15.9q1.1 1.7 1.9 3.2l-11.5 11.2 4.7 4.8 9.3-9.1q0.2 1.5 0 2.7c-0.2 1.8-1.1 3.4-2.7 4.9q0 0.1-0.1 0.1l-7.5 7.3 4.7 4.8 7.5-7.3q0 0 0.1 0c2.6-2.6 4.2-5.5 4.7-8.7 0.5-3.3-0.1-6.7-1.7-10.7-2.7-6.5-8.7-14.4-18.5-24.9 1.1-1.1 2.6-2.4 4.4-3.8 3.5-2.6 8.8-5.8 14.2-5.9q2.3-0.1 4.3 0.5l-13.2 12.9 4.7 4.8 14.5-14.1q0.4 0.4 0.9 0.9 0.8 0.9 1.6 1.8l-16.2 15.8 4.7 4.8 14.9-14.6q0.2 0.4 0.3 0.8c0.3 1.4 0.5 3.4-0.7 4.6q0 0 0 0-0.1 0.1-0.1 0.1l-4.3 4.3 4.7 4.8 4.3-4.3q0 0 0.1 0c2.7-2.7 3.6-6.7 2.5-11.2z"/>
					<path id="&lt;Path&gt;" class="s1" d="m90.7 76.6l4.7 4.8 4.6-4.5-4.7-4.8z"/>
				</g>
				<path id="&lt;Path&gt;" class="s1" d="m55.9 58.8l-3.8 3.6c-0.7 0.7-8.7 8-15.3 19.7-4 7.1-6.6 14.3-7.9 21.5q-1.4 8.2-0.4 16.2h6.8q-1.1-7.4 0.2-15c1.1-6.4 3.5-12.9 7.1-19.3 6.2-11.1 13.9-18.1 14-18.2l3.9-3.7z"/>
			</g>
		</g>
	</g>
</svg>